<svg width="218" height="19" viewBox="0 0 218 19" fill="none" xmlns="http://www.w3.org/2000/svg">
<g id="Digital Experience By Juicebox Creative Agency">
<path d="M1.8566 12.4944H3.21587C5.76797 12.4944 7.04402 10.9925 7.04402 8.60304V8.49381C7.04402 6.2409 5.93441 4.65704 3.202 4.65704H1.8566V12.4944ZM0.649902 13.4638V3.70127H3.27135C6.68339 3.70127 8.29233 5.77667 8.29233 8.49381V8.61669C8.29233 11.3202 6.71113 13.4638 3.24361 13.4638H0.649902Z" fill="#FAFAFA"/>
<path d="M10.252 13.4638V6.32283H11.4032V13.4638H10.252ZM10.8068 4.83454C10.3907 4.83454 10.044 4.4932 10.044 4.08358C10.044 3.67396 10.3907 3.33261 10.8068 3.33261C11.2229 3.33261 11.5697 3.67396 11.5697 4.08358C11.5697 4.4932 11.2229 4.83454 10.8068 4.83454Z" fill="#FAFAFA"/>
<path d="M16.6584 16.0718C14.5085 16.0718 13.5653 15.075 13.3712 13.8735H14.5501C14.7166 14.6927 15.4101 15.116 16.6445 15.116C18.0731 15.116 18.9747 14.4469 18.9747 12.9177V11.88C18.5586 12.5763 17.5738 13.2317 16.5197 13.2317C14.6195 13.2317 13.2186 11.8117 13.2186 9.84555V9.74997C13.2186 7.81111 14.6056 6.19994 16.6029 6.19994C17.8096 6.19994 18.5586 6.77341 18.9747 7.46976V6.32283H20.1259V12.986C20.112 15.0614 18.6834 16.0718 16.6584 16.0718ZM16.6445 12.2896C17.9899 12.2896 19.0163 11.3611 19.0163 9.76362V9.66805C19.0163 8.07053 18.1286 7.14206 16.7139 7.14206C15.2714 7.14206 14.4114 8.19342 14.4114 9.69535V9.80459C14.4114 11.3611 15.4239 12.2896 16.6445 12.2896Z" fill="#FAFAFA"/>
<path d="M22.4832 13.4638V6.32283H23.6344V13.4638H22.4832ZM23.038 4.83454C22.6219 4.83454 22.2751 4.4932 22.2751 4.08358C22.2751 3.67396 22.6219 3.33261 23.038 3.33261C23.4541 3.33261 23.8008 3.67396 23.8008 4.08358C23.8008 4.4932 23.4541 4.83454 23.038 4.83454Z" fill="#FAFAFA"/>
<path d="M28.196 13.5594C26.8784 13.5594 26.2403 12.7948 26.2403 11.6752V7.2786H25.2001V6.32283H26.2403V4.69801H27.3916V6.32283H29.0837V7.2786H27.3916V11.5659C27.3916 12.2623 27.7106 12.6036 28.2931 12.6036C28.6537 12.6036 28.9311 12.549 29.1808 12.4535V13.4092C28.945 13.4912 28.6676 13.5594 28.196 13.5594Z" fill="#FAFAFA"/>
<path d="M32.8058 13.5867C31.4604 13.5867 30.3924 12.945 30.3924 11.484C30.3924 9.83189 32.1677 9.27208 34.0263 9.27208H35.0666V8.75323C35.0666 7.61995 34.6228 7.14206 33.5131 7.14206C32.5145 7.14206 31.9597 7.55168 31.8487 8.42554H30.6975C30.8501 6.80071 32.1677 6.19994 33.5686 6.19994C34.9556 6.19994 36.2178 6.75975 36.2178 8.75323V13.4638H35.0666V12.5627C34.5257 13.2317 33.8738 13.5867 32.8058 13.5867ZM32.9167 12.6856C34.1373 12.6856 35.0666 12.0711 35.0666 10.9652V10.0777H34.0679C32.6116 10.0777 31.5436 10.4327 31.5436 11.484C31.5436 12.2213 31.9042 12.6856 32.9167 12.6856Z" fill="#FAFAFA"/>
<path d="M38.5069 13.4638V2.90934H39.672V13.4638H38.5069Z" fill="#FAFAFA"/>
<path d="M48.6669 13.5867C46.6141 13.5867 45.1577 12.1667 45.1577 9.96843V9.8592C45.1577 7.70188 46.5586 6.19994 48.5559 6.19994C50.2342 6.19994 51.8154 7.19668 51.8154 9.74997V10.1186H46.3506C46.406 11.7434 47.1966 12.6446 48.6807 12.6446C49.8042 12.6446 50.4561 12.235 50.6087 11.4021H51.7599C51.5102 12.8358 50.3035 13.5867 48.6669 13.5867ZM46.3922 9.20381H50.6364C50.5255 7.72918 49.7487 7.14206 48.5559 7.14206C47.377 7.14206 46.5864 7.93399 46.3922 9.20381Z" fill="#FAFAFA"/>
<path d="M52.602 13.4638L55.1957 9.79093L52.7684 6.32283H54.1138L55.8892 8.91708L57.6507 6.32283H58.899L56.4995 9.70901L59.1487 13.4638H57.7894L55.8337 10.5829L53.8364 13.4638H52.602Z" fill="#FAFAFA"/>
<path d="M60.7066 15.9489V6.32283H61.8578V7.52437C62.2739 6.82802 63.2586 6.19994 64.3128 6.19994C66.213 6.19994 67.6139 7.56534 67.6139 9.79093V9.90016C67.6139 12.0848 66.3101 13.5867 64.3128 13.5867C63.1199 13.5867 62.2739 12.9996 61.8578 12.2896V15.9489H60.7066ZM64.2018 12.6446C65.6443 12.6446 66.421 11.6888 66.421 9.95478V9.84555C66.421 8.04322 65.4085 7.14206 64.1879 7.14206C62.8425 7.14206 61.8162 8.01592 61.8162 9.84555V9.95478C61.8162 11.7844 62.7871 12.6446 64.2018 12.6446Z" fill="#FAFAFA"/>
<path d="M72.3707 13.5867C70.3179 13.5867 68.8615 12.1667 68.8615 9.96843V9.8592C68.8615 7.70188 70.2624 6.19994 72.2597 6.19994C73.938 6.19994 75.5192 7.19668 75.5192 9.74997V10.1186H70.0543C70.1098 11.7434 70.9004 12.6446 72.3845 12.6446C73.508 12.6446 74.1599 12.235 74.3125 11.4021H75.4637C75.214 12.8358 74.0073 13.5867 72.3707 13.5867ZM70.0959 9.20381H74.3402C74.2292 7.72918 73.4525 7.14206 72.2597 7.14206C71.0807 7.14206 70.2901 7.93399 70.0959 9.20381Z" fill="#FAFAFA"/>
<path d="M77.2856 13.4638V6.32283H78.4369V7.6063C78.8946 6.80071 79.5187 6.2409 80.8225 6.19994V7.26495C79.3662 7.33322 78.4369 7.7838 78.4369 9.54516V13.4638H77.2856Z" fill="#FAFAFA"/>
<path d="M82.5282 13.4638V6.32283H83.6794V13.4638H82.5282ZM83.083 4.83454C82.6669 4.83454 82.3202 4.4932 82.3202 4.08358C82.3202 3.67396 82.6669 3.33261 83.083 3.33261C83.4991 3.33261 83.8459 3.67396 83.8459 4.08358C83.8459 4.4932 83.4991 4.83454 83.083 4.83454Z" fill="#FAFAFA"/>
<path d="M89.0039 13.5867C86.9512 13.5867 85.4948 12.1667 85.4948 9.96843V9.8592C85.4948 7.70188 86.8957 6.19994 88.893 6.19994C90.5713 6.19994 92.1524 7.19668 92.1524 9.74997V10.1186H86.6876C86.7431 11.7434 87.5337 12.6446 89.0178 12.6446C90.1413 12.6446 90.7932 12.235 90.9457 11.4021H92.097C91.8473 12.8358 90.6406 13.5867 89.0039 13.5867ZM86.7292 9.20381H90.9735C90.8625 7.72918 90.0858 7.14206 88.893 7.14206C87.714 7.14206 86.9234 7.93399 86.7292 9.20381Z" fill="#FAFAFA"/>
<path d="M93.9189 13.4638V6.32283H95.0701V7.4561C95.403 6.78706 96.2075 6.19994 97.4003 6.19994C98.8983 6.19994 99.9524 7.00552 99.9524 9.08093V13.4638H98.8012V8.999C98.8012 7.74284 98.2603 7.18303 97.0952 7.18303C96.0272 7.18303 95.0701 7.85207 95.0701 9.13554V13.4638H93.9189Z" fill="#FAFAFA"/>
<path d="M105.218 13.5867C103.193 13.5867 101.668 12.1804 101.668 9.96843V9.8592C101.668 7.67457 103.249 6.19994 105.191 6.19994C106.702 6.19994 108.117 6.88264 108.339 8.69862H107.202C107.021 7.56534 106.189 7.14206 105.191 7.14206C103.873 7.14206 102.86 8.17976 102.86 9.8592V9.96843C102.86 11.7161 103.831 12.6446 105.232 12.6446C106.259 12.6446 107.188 12.0575 107.313 10.8969H108.381C108.228 12.4398 106.966 13.5867 105.218 13.5867Z" fill="#FAFAFA"/>
<path d="M113.087 13.5867C111.034 13.5867 109.578 12.1667 109.578 9.96843V9.8592C109.578 7.70188 110.979 6.19994 112.976 6.19994C114.654 6.19994 116.235 7.19668 116.235 9.74997V10.1186H110.771C110.826 11.7434 111.617 12.6446 113.101 12.6446C114.224 12.6446 114.876 12.235 115.029 11.4021H116.18C115.93 12.8358 114.724 13.5867 113.087 13.5867ZM110.812 9.20381H115.057C114.946 7.72918 114.169 7.14206 112.976 7.14206C111.797 7.14206 111.006 7.93399 110.812 9.20381Z" fill="#FAFAFA"/>
<path d="M125.279 13.5867C124.1 13.5867 123.24 12.9996 122.824 12.2896V13.4638H121.673V2.90934H122.824V7.52437C123.24 6.82802 124.225 6.19994 125.279 6.19994C127.179 6.19994 128.58 7.56534 128.58 9.79093V9.90016C128.58 12.0848 127.276 13.5867 125.279 13.5867ZM125.168 12.6446C126.61 12.6446 127.387 11.6888 127.387 9.95478V9.84555C127.387 8.04322 126.375 7.14206 125.154 7.14206C123.809 7.14206 122.782 8.01592 122.782 9.84555V9.95478C122.782 11.7844 123.753 12.6446 125.168 12.6446Z" fill="#FAFAFA"/>
<path d="M130.885 15.9489L132.258 12.7265L129.415 6.32283H130.649L132.868 11.4431L134.88 6.32283H136.059L132.05 15.9489H130.885Z" fill="#FAFAFA"/>
<path d="M153.679 10.4395C153.679 11.5464 152.964 11.8886 152.268 11.8886C151.594 11.8886 150.837 11.5464 150.837 10.4395V5.24006H147.559V11.1238C147.559 13.0962 149.174 14.8539 152.268 14.8539C155.383 14.8539 156.957 13.1029 156.957 11.1238V5.24006H153.679V10.4395Z" fill="#FAFAFA"/>
<path d="M158.981 14.6124H162.252V5.24006H158.981V14.6124Z" fill="#FAFAFA"/>
<path d="M160.603 0.181641C159.499 0.181641 158.64 1.04709 158.64 2.13393C158.64 3.22078 159.499 4.0661 160.603 4.0661C161.707 4.0661 162.586 3.22078 162.586 2.13393C162.593 1.04709 161.714 0.181641 160.603 0.181641Z" fill="#FAFAFA"/>
<path d="M168.843 7.917C169.763 7.917 170.417 8.5208 170.622 9.40638L173.859 8.78245C173.368 6.46788 171.324 4.99862 168.822 4.99862C165.974 4.99862 163.704 7.05155 163.704 9.91626C163.704 12.781 165.974 14.854 168.822 14.854C171.317 14.854 173.389 13.3848 173.859 11.0635L170.622 10.4396C170.417 11.3251 169.763 11.9289 168.843 11.9289C167.759 11.9289 166.982 11.0635 166.982 9.91626C166.982 8.74891 167.759 7.917 168.843 7.917Z" fill="#FAFAFA"/>
<path d="M179.651 4.99862C176.762 4.99862 174.615 7.07168 174.615 9.91626C174.615 12.781 176.803 14.854 179.692 14.854C181.9 14.854 183.727 13.9483 184.586 11.788L181.348 11.2647C181.083 11.8082 180.428 12.1101 179.774 12.1101C178.834 12.1101 178.2 11.4861 178.057 10.822H184.77V10.6408C184.77 6.64902 182.337 4.99862 179.651 4.99862ZM177.955 8.80929C178.118 8.10485 178.772 7.58156 179.651 7.58156C180.531 7.58156 181.185 8.10485 181.348 8.80929H177.955Z" fill="#FAFAFA"/>
<path d="M202.605 4.99862C199.756 4.99862 197.487 7.05155 197.487 9.91626C197.487 12.781 199.756 14.854 202.605 14.854C205.453 14.854 207.723 12.781 207.723 9.91626C207.723 7.05155 205.447 4.99862 202.605 4.99862ZM202.605 11.9289C201.521 11.9289 200.765 11.0635 200.765 9.91626C200.765 8.74891 201.521 7.92371 202.605 7.92371C203.668 7.92371 204.445 8.74891 204.445 9.91626C204.445 11.0635 203.668 11.9289 202.605 11.9289Z" fill="#FAFAFA"/>
<path d="M218 5.24006H214.333L213.045 7.59489L211.812 5.24006H208.029L210.769 9.91618L207.988 14.6124H211.75L212.984 12.1905L214.252 14.6124H218L215.274 9.8558L218 5.24006Z" fill="#FAFAFA"/>
<path d="M141.132 8.02435H142.38V14.9144C142.38 15.2767 142.196 15.4176 141.644 15.4176H140.724V18.1816H142.257C143.586 18.1816 145.658 18.1011 145.658 15.7866V5.26028H141.132V8.02435Z" fill="#FAFAFA"/>
<path d="M143.899 0.201818C142.795 0.201818 141.937 1.06727 141.937 2.15411C141.937 3.24096 142.795 4.08628 143.899 4.08628C145.003 4.08628 145.882 3.24096 145.882 2.15411C145.882 1.06727 145.003 0.201818 143.899 0.201818Z" fill="#FAFAFA"/>
<path d="M192.123 4.99859C190.631 4.99859 189.731 5.60239 189.295 6.26657C189.295 6.26657 189.377 5.70302 189.377 5.01871V0.503617H186.099V14.6125H189.377V13.586C189.806 14.2301 190.767 14.854 192.123 14.854C194.597 14.854 196.587 12.7809 196.587 9.91622C196.587 7.05152 194.597 4.99859 192.123 4.99859ZM191.244 11.9289C190.12 11.9289 189.322 11.0031 189.322 9.91622C189.322 8.80925 190.12 7.92367 191.244 7.92367C192.389 7.92367 193.186 8.80925 193.186 9.91622C193.186 11.0031 192.389 11.9289 191.244 11.9289Z" fill="#FAFAFA"/>
</g>
</svg>
