<svg width="225" height="91" viewBox="0 0 225 91" fill="none" xmlns="http://www.w3.org/2000/svg">
<g clip-path="url(#clip0_9069_4100)">
<path d="M42.7894 61.4604C44.1527 61.4604 44.8344 60.8796 44.8344 59.7255C44.8344 59.1006 44.6804 58.6449 44.3653 58.3508C44.0574 58.0641 43.5737 57.9171 42.9287 57.9171H40.7445V61.4604H42.7894ZM32.3669 51.3525H44.9003C47.6489 51.3525 49.7451 52.1244 51.189 53.6608C52.6329 55.2045 53.3512 57.2187 53.3512 59.7181C53.3512 61.1516 52.9847 62.4454 52.2591 63.5922C51.5335 64.739 50.5807 65.7093 49.4006 66.4959C49.8404 66.7973 50.1482 67.1795 50.3388 67.6427L52.9701 73.7221H44.2407L42.0565 68.7527C41.9392 68.4733 41.8146 68.2822 41.6754 68.1793C41.5361 68.0764 41.3382 68.0249 41.089 68.0249H40.7445V73.7221H32.3669V51.3525Z" fill="#F47D72"/>
<path d="M64.001 71.1495C61.7508 69.2014 60.6221 66.3345 60.6221 62.5339C60.6221 58.7334 61.7361 55.8665 63.9643 53.9184C66.1925 51.9704 69.4981 51 73.8884 51C75.2517 51 76.483 51.1029 77.5751 51.294C78.6745 51.4925 79.7886 51.7939 80.9174 52.2129V59.542C78.8138 58.5717 76.6589 58.0792 74.4381 58.0792C72.7084 58.0792 71.3964 58.4173 70.5095 59.0863C69.6227 59.7552 69.1756 60.902 69.1756 62.5266C69.1756 64.1512 69.63 65.2686 70.5462 65.9449C71.455 66.6285 72.7817 66.9667 74.5114 66.9667C76.7249 66.9667 78.8871 66.4815 80.9907 65.5112V72.8402C79.8619 73.2592 78.7478 73.568 77.6484 73.7591C76.549 73.9503 75.325 74.0532 73.9617 74.0532C69.5787 74.0532 66.2584 73.0828 64.0083 71.1348" fill="#F47D72"/>
<path d="M104.254 63.8201L102.554 59.5491L100.853 63.8201H104.247H104.254ZM98.2295 51.3525H106.922L115.512 73.7221H106.783L105.193 69.554H99.9666L98.3761 73.7221H89.6467L98.2369 51.3525H98.2295Z" fill="#F47D72"/>
<path d="M146.091 13.3985C146.032 14.3836 146.003 15.6921 145.922 17.0814C145.842 18.4635 145.695 20.0292 145.615 21.7862C145.534 23.5431 145.49 25.6896 145.453 27.7921C145.431 29.0491 145.38 30.9163 145.336 32.4086C145.204 37.0986 145.211 41.4799 145.057 46.339C144.911 51.1981 144.566 56.535 144.178 61.5632C144.053 63.1584 143.863 65.0035 143.665 66.6796C143.467 68.363 143.21 70.1199 142.895 71.8327C142.573 73.5455 142.25 75.3172 141.847 77.0447C141.444 78.7648 140.909 80.463 140.308 82.139C139.993 83.0138 139.641 83.8592 139.245 84.7266C138.849 85.5867 138.358 86.4394 137.801 87.2334C137.545 87.6009 137.142 87.9464 136.826 88.2478C136.511 88.5566 136.152 88.9315 135.8 89.1226C134.833 89.6519 133.821 90.0636 132.766 90.1518C131.703 90.24 130.765 90.0636 129.798 89.7769C128.83 89.4902 127.973 88.9609 127.188 88.4022C126.404 87.8362 125.803 87.1451 125.187 86.4615C124.572 85.7852 123.971 85.1089 123.494 84.3591C121.633 81.4039 119.954 78.3679 118.422 75.251C117.726 73.8249 117.132 72.3105 116.568 70.8771C116.003 69.4363 115.52 67.8999 115.073 66.5032C114.186 63.6877 113.314 60.8134 112.529 58.0787C111.745 55.3368 111.115 52.8668 110.352 50.1763C110.286 49.9484 110.191 49.7058 110.125 49.4779C110.067 49.2427 110.045 49.1471 109.979 48.8972C109.48 47.052 109.077 45.5965 108.593 43.6264C108.11 41.6563 107.641 39.7891 107.128 37.5397C106.614 35.2902 106.021 32.5409 105.471 30.0194C105.302 29.2402 105.009 27.8656 104.775 26.9173C104.152 24.3591 103.543 21.8303 102.913 19.2133C102.275 16.5963 101.572 13.7955 100.853 11.1638C100.626 10.3404 100.296 9.37745 100.047 8.60558C99.7907 7.82636 99.4242 6.91481 99.1824 6.28262C98.9405 5.65042 98.7719 5.15054 98.6107 4.68007C98.4421 4.2096 98.2662 3.87879 98.1196 3.5774C97.973 3.276 97.8777 3.21719 97.7751 3.01136C97.6652 2.80553 97.5406 2.65851 97.4233 2.53354C97.306 2.40857 97.2107 2.41592 97.1228 2.34241C97.0348 2.26889 96.9469 2.26889 96.8736 2.30565C96.1333 2.67321 95.4736 2.86434 94.8726 3.48918C94.2716 4.11403 93.7805 4.8565 93.3554 5.66512C92.923 6.47375 92.5712 7.31913 92.278 8.23802C91.9848 9.15691 91.589 10.1346 91.3985 11.1197C90.6435 14.9423 89.9546 18.9266 89.5661 22.7859C89.1776 26.6453 89.0017 30.7399 88.8405 34.4963C88.6792 38.2527 88.6866 42.3032 88.6719 45.7803C88.6572 49.2574 88.6792 53.2196 88.6792 56.1895C88.6792 61.7617 88.7599 67.694 88.9064 72.5752C89.053 77.4564 89.3389 80.5218 89.6101 84.9031C89.6394 85.3588 89.6687 85.5058 89.698 85.7043C89.786 86.4321 89.8813 87.1746 89.9106 87.7259C89.9399 88.2772 89.8446 88.586 89.786 88.9756C89.7273 89.3652 89.7347 89.549 89.3682 89.5637C89.0017 89.5857 88.9504 89.3799 88.7965 89.0123C88.6426 88.6448 88.496 88.3287 88.408 87.7921C88.3274 87.2554 88.2175 86.513 88.1442 85.8219C88.1222 85.6308 88.0929 85.3441 88.0416 84.9398C87.9903 84.5355 87.8657 84.5428 87.8143 83.8445C87.4845 79.6837 87.1694 76.5889 87.0081 71.9136C86.8469 67.2309 86.7369 61.5926 86.7369 56.2483C86.7369 53.2417 86.7223 49.3015 86.7296 45.817C86.7296 42.3326 86.7662 38.1792 86.8835 34.4595C86.9421 32.6365 87.0521 30.512 87.1474 28.5786C87.2427 26.6453 87.294 24.609 87.4772 22.6168C87.6604 20.6247 87.9096 18.559 88.2395 16.5595C88.5693 14.5526 88.9431 12.5384 89.4635 10.561C89.9839 8.58352 90.7535 6.65017 91.5597 4.77563C91.8016 4.2096 92.1754 3.74647 92.4906 3.2466C92.8057 2.74672 93.0036 2.27625 93.4214 1.84253C93.8392 1.40881 94.3303 1.12212 94.8726 0.828072C95.415 0.541377 96.0087 0.36495 96.639 0.217927C96.7416 0.195874 96.9102 0.217927 97.0788 0.195874C97.2474 0.17382 97.6139 0.144416 97.8044 0.210576C97.995 0.276736 98.1636 0.438461 98.3028 0.541377C98.4347 0.644293 98.4787 0.644293 98.596 0.739858C98.7133 0.835423 98.7426 0.82072 98.8819 0.975094C99.0138 1.12947 99.197 1.34265 99.3583 1.58524C99.5122 1.82783 99.7101 2.09982 99.886 2.40857C100.062 2.71731 100.318 3.22454 100.524 3.54064C100.722 3.84939 100.949 4.28311 101.051 4.5551C101.154 4.83444 101.095 4.87855 101.125 5.09908C101.154 5.31962 101.125 5.04763 101.125 5.07703C101.506 5.96652 101.858 6.90746 102.158 7.84106C102.459 8.77465 102.796 9.7156 103.06 10.6565C103.756 13.1559 104.401 15.7803 105.031 18.2723C105.654 20.757 106.285 23.1976 106.886 25.6455C107.171 26.7923 107.487 28.4537 107.707 29.4314C108.293 31.9748 108.953 34.6433 109.488 36.9001C110.03 39.1569 110.477 41.0168 110.968 43.0089C111.459 44.9937 111.855 46.5301 112.353 48.3899C112.419 48.6399 112.507 48.8678 112.559 49.0368C112.61 49.1986 112.573 49.2794 112.595 49.3529C113.262 52.1096 113.922 54.5943 114.743 57.3363C115.564 60.0783 116.429 62.9158 117.315 65.7386C117.755 67.1353 118.261 68.6717 118.803 70.1199C119.346 71.5681 119.903 73.1412 120.555 74.5894C121.207 76.0376 121.918 77.4931 122.681 78.9045C123.443 80.3159 124.242 81.7568 125.217 83.0432C126.191 84.3223 127.24 85.6529 128.552 86.5497C129.864 87.4539 131.11 88.0126 132.693 87.917C134.276 87.8214 135.163 86.8952 136.24 85.7705C136.731 85.2633 137.09 84.4032 137.45 83.7269C137.809 83.0506 138.263 82.2493 138.49 81.4995C139.465 78.3017 140.352 74.9349 141.048 71.7225C141.429 69.9508 141.613 68.2233 141.877 66.5546C142.14 64.8785 142.375 63.004 142.514 61.4529C143.035 55.6455 143.445 49.0736 143.68 43.5749C143.914 38.0689 144.061 33.0114 144.281 28.0273C144.391 25.5867 144.434 23.7783 144.522 21.8817C144.61 19.9851 144.779 18.5076 144.889 17.0741C144.999 15.6333 145.116 14.3615 145.167 13.3618C145.219 12.3547 145.307 11.8107 145.395 11.2079C145.483 10.6051 145.358 10.6124 145.761 10.6492C146.157 10.6859 146.032 10.6639 146.076 11.2667C146.113 11.8621 146.179 12.4282 146.12 13.4132" fill="#FDE8E4"/>
<path d="M190.654 45.2664C190.999 45.4428 191.255 45.5751 191.431 45.656C191.519 45.7442 191.563 45.8324 191.563 45.9133C191.475 46.0015 191.387 46.0456 191.307 46.0456C191.219 46.1338 190.999 46.1779 190.654 46.1779C190.222 46.1779 189.833 46.1338 189.482 46.0456C189.049 45.9574 188.617 45.8912 188.184 45.8471C187.752 45.803 187.187 45.7368 186.498 45.6486C185.89 45.5604 185.223 45.4942 184.49 45.4501C183.75 45.406 182.907 45.384 181.954 45.384H180.268C179.748 45.2958 179.162 45.2369 178.517 45.1855C177.864 45.1414 177.241 45.1634 176.633 45.2517H167.801C167.713 46.0309 167.669 46.7954 167.669 47.5305V52.022C167.669 52.8013 167.713 53.6319 167.801 54.4994C167.801 57.5428 167.889 60.4465 168.057 63.2252C168.233 66.0039 168.402 68.4813 168.578 70.6498C168.666 71.7819 168.754 72.7523 168.834 73.5829C168.922 74.4063 169.01 75.1267 169.091 75.7295C169.179 76.4278 169.267 77.0747 169.347 77.6849C169.435 78.3832 169.157 78.7949 168.505 78.9199C167.852 79.0522 167.442 78.7655 167.273 78.0745C167.273 77.5526 167.229 76.9057 167.141 76.1191C167.053 75.4207 166.965 74.6415 166.885 73.7741C166.797 72.9066 166.709 71.951 166.628 70.9071C166.452 68.6503 166.306 66.1142 166.174 63.2913C166.042 60.4685 165.983 57.5428 165.983 54.4994V49.9417C165.983 48.4641 166.027 46.9424 166.115 45.384C163.696 45.4722 161.417 45.5825 159.299 45.7074C157.181 45.8397 155.253 45.9868 153.516 46.1632C153.083 46.1632 152.805 45.9059 152.673 45.384C152.541 44.862 152.739 44.5606 153.259 44.4724C155.077 44.3034 157.049 44.171 159.167 44.0828C161.292 43.9946 163.609 43.9064 166.115 43.8255L166.504 36.9228L166.892 33.2766L167.024 31.5859L167.288 30.8067V30.6743C167.288 30.4171 167.369 30.2406 167.544 30.1524C167.544 29.976 167.588 29.8878 167.676 29.8878C167.676 29.5423 167.852 29.4541 168.197 29.6305C168.974 29.976 169.303 30.1304 169.172 30.0863C169.04 30.0421 169.018 30.0642 169.106 30.1524C169.194 30.2406 169.238 30.4097 169.238 30.6743C169.238 30.7626 169.282 30.8508 169.369 30.9316C169.369 31.1081 169.347 31.211 169.304 31.2551C169.26 31.2992 169.238 31.3653 169.238 31.4536V31.8432C169.238 32.2769 169.194 32.6224 169.106 32.887L168.849 33.7986V34.5778C168.593 35.2762 168.373 35.7099 168.197 35.8789V36.2686C168.197 36.445 168.175 36.5773 168.131 36.6582C168.087 36.7464 168.065 36.8787 168.065 37.0478C167.977 38.0916 167.911 39.1796 167.874 40.3043C167.83 41.4364 167.808 42.6052 167.808 43.8182H169.89C171.011 43.8182 172.14 43.8402 173.269 43.8843C174.397 43.9284 175.519 43.9505 176.648 43.9505C177.256 43.9505 177.989 43.9726 178.854 44.0167C179.719 44.0608 180.452 44.171 181.06 44.3401H183.142C183.83 44.3401 184.461 44.3842 185.025 44.4724C185.59 44.5606 186.132 44.6489 186.645 44.7297C187.942 44.9061 188.939 45.0385 189.635 45.1193C190.068 45.2075 190.456 45.2517 190.801 45.2517H190.669L190.654 45.2664Z" fill="#FDE8E4"/>
<path d="M174.419 59.4685C174.155 59.2921 173.987 59.0348 173.899 58.6893C173.811 58.3438 173.811 58.035 173.899 57.7778C174.155 57.1676 174.632 56.8662 175.328 56.8662C175.673 57.0426 175.804 57.322 175.717 57.7116C175.629 58.1012 175.541 58.4246 175.453 58.6893V58.557C175.365 59.2553 175.02 59.5567 174.412 59.4685M185.97 66.7608C185.45 67.4592 184.783 68.1282 183.955 68.7824C183.134 69.4367 182.159 70.0174 181.03 70.5393C180.51 70.804 179.902 71.0172 179.213 71.1936C178.516 71.37 177.827 71.4141 177.131 71.3259C176.266 71.1495 175.57 70.7599 175.057 70.1571C174.536 69.5469 174.192 68.9441 174.016 68.334C173.584 67.121 173.364 65.7758 173.364 64.2982V63.0632C173.364 62.6736 173.408 62.3061 173.496 61.9532V61.5636C173.496 61.2989 173.796 61.174 174.405 61.174C175.013 61.174 175.269 61.3504 175.181 61.6959C175.094 62.1296 175.028 62.5633 174.984 62.9971C174.94 63.4308 174.918 63.9086 174.918 64.4305C174.918 64.8643 174.962 65.3862 175.05 65.9963C175.138 66.6065 175.262 67.2093 175.438 67.8194C175.782 68.9515 176.435 69.6425 177.388 69.8998C177.908 70.0762 178.45 70.0762 179.007 69.8998C179.572 69.7307 180.114 69.5543 180.627 69.3778C181.58 68.9441 182.467 68.4222 183.288 67.8121C184.109 67.2019 184.783 66.6359 185.303 66.1213C185.56 65.864 185.78 65.6214 185.956 65.4009C186.124 65.1877 186.3 64.9892 186.476 64.8128C186.652 64.6437 186.777 64.4673 186.865 64.2909C187.121 64.0336 187.297 63.9013 187.385 63.9013C187.473 63.9013 187.561 63.9454 187.642 64.0336C187.73 64.1218 187.774 64.21 187.774 64.2909C187.774 64.5482 187.73 64.6805 187.642 64.6805C187.554 64.8569 187.356 65.1362 187.055 65.5259C186.747 65.9155 186.381 66.3271 185.948 66.7608" fill="#FDE8E4"/>
<path d="M189.027 67.7309C189.115 68.1646 189.239 68.5322 189.415 68.8409C189.584 69.1423 189.76 69.4731 189.936 69.8186C190.28 70.2524 190.669 70.5979 191.101 70.8625C191.534 71.1198 192.054 71.1712 192.662 70.9948C193.703 70.7375 194.524 69.951 195.132 68.6498C195.741 67.5251 196.129 66.2827 196.298 64.9375C196.466 63.5922 196.466 62.3131 196.298 61.0928C196.298 59.8799 195.99 58.7478 195.389 57.704L194.737 57.3143H194.216C193.96 57.3143 193.718 57.3584 193.505 57.4467C193.285 57.5349 193.095 57.6231 192.919 57.704C192.486 58.0495 192.12 58.4464 191.812 58.8801C191.512 59.3139 191.27 59.7476 191.101 60.1813C190.757 60.7032 190.405 61.5265 190.06 62.6586C189.804 63.4378 189.606 64.1803 189.474 64.8713C189.342 65.5697 189.232 66.1284 189.151 66.5621L189.02 67.7309H189.027ZM188.506 64.7316C188.594 64.2979 188.675 63.9083 188.763 63.5628C188.851 63.2173 188.939 62.7836 189.02 62.2617C189.195 61.9162 189.342 61.5265 189.474 61.0928C189.606 60.6591 189.84 60.1813 190.185 59.6594H190.053C190.31 59.1374 190.617 58.6375 190.962 58.1597C191.306 57.6819 191.739 57.2702 192.259 56.9247C192.955 56.4028 193.6 56.1455 194.209 56.1455C194.641 56.1455 194.986 56.2337 195.25 56.4028C195.594 56.491 195.858 56.6233 196.027 56.7924C196.716 57.4908 197.133 58.1818 197.258 58.8728C197.39 59.5711 197.536 60.2621 197.712 60.9605V62.7836C197.712 63.8275 197.602 64.9154 197.39 66.0401C197.17 67.1722 196.803 68.2528 196.283 69.2967C195.939 69.9951 195.506 70.642 194.986 71.2521C194.465 71.8622 193.776 72.2519 192.912 72.4209C191.959 72.7664 191.182 72.6856 190.573 72.1636C190.317 72.1636 190.009 72.0313 189.665 71.774L189.408 71.5094H189.54C189.195 71.3403 188.976 71.1198 188.888 70.8551L188.756 70.7228C187.979 69.5099 187.458 68.1646 187.195 66.687C187.026 65.996 186.938 65.2977 186.938 64.6067V62.7836C187.026 61.4824 187.282 60.2254 187.715 59.0051C187.891 58.8287 188.015 58.5714 188.103 58.2259C188.191 57.8804 188.316 57.5716 188.492 57.3143L189.012 57.0571H189.144C189.665 56.7115 190.009 56.6674 190.185 56.9247H190.053L190.573 57.182V58.0936C190.573 58.27 190.551 58.3729 190.507 58.417C190.463 58.4611 190.441 58.5273 190.441 58.6155C190.185 59.3947 189.789 59.6152 189.276 59.2697C189.276 59.358 189.254 59.4241 189.21 59.4682C189.166 59.5123 189.144 59.5785 189.144 59.6667C188.8 60.7106 188.58 61.7471 188.492 62.7909V64.7463L188.506 64.7316Z" fill="#FDE8E4"/>
<path d="M225 62.7842V63.0415C225 63.2179 224.824 63.4311 224.48 63.6957C224.392 63.7839 224.26 63.8722 224.091 63.953C223.915 64.0412 223.747 64.1074 223.571 64.1515C223.395 64.1956 223.226 64.3059 223.05 64.4749C222.618 64.8205 222.053 65.1733 221.364 65.5188C220.668 65.8643 219.935 66.1731 219.158 66.4304C218.726 66.6068 218.249 66.7097 217.729 66.7538C217.209 66.7979 216.6 66.6876 215.911 66.4304C215.046 66.0849 214.57 65.607 214.482 64.9969C214.306 64.7396 214.196 64.4749 214.16 64.2177C214.116 63.9604 214.006 63.6516 213.837 63.3061C213.749 63.137 213.705 62.9827 213.705 62.8503C213.705 62.718 213.661 62.571 213.573 62.3946C213.485 62.0491 213.353 61.6595 213.185 61.2257C213.009 60.792 212.796 60.4465 212.532 60.1819C212.269 59.9172 211.924 59.7923 211.492 59.7923C211.235 59.8805 210.971 59.9834 210.715 60.1157C210.451 60.248 210.238 60.4024 210.062 60.5715C209.11 61.4389 208.289 62.4828 207.592 63.6957C206.896 64.916 206.251 66.129 205.643 67.3419C205.467 67.7756 205.276 68.2093 205.056 68.643C204.837 69.0768 204.646 69.5105 204.47 69.9442L203.818 71.2453L203.686 71.5026C203.686 71.7599 203.51 72.1569 203.165 72.6788C202.733 73.3698 202.345 73.7227 201.993 73.7227H201.861C201.685 73.7227 201.604 73.6786 201.604 73.5904C201.428 73.5904 201.296 73.458 201.216 73.2008L201.084 73.0684V73.2008C200.996 73.0243 200.952 72.8332 200.952 72.6127C200.952 72.3921 200.908 72.1569 200.82 71.8923L200.688 71.113L200.556 70.5911V63.0341C200.556 62.865 200.578 62.7107 200.622 62.5784C200.666 62.446 200.688 62.3431 200.688 62.2549C200.688 61.733 200.732 61.211 200.82 60.6891C200.908 60.1672 200.989 59.6894 201.077 59.2556L201.333 58.2118L201.597 57.6898L201.985 57.3002C202.33 57.1238 202.652 57.1459 202.96 57.3664C203.261 57.5869 203.503 57.7781 203.679 57.9545C203.766 58.3882 203.81 58.8219 203.81 59.2556C203.81 59.6894 203.766 59.9981 203.679 60.1672C203.679 60.9464 203.371 61.3434 202.77 61.3434L202.638 63.1664L202.381 66.9449V69.0253L202.513 69.9368L204.199 66.548C204.888 65.2468 205.606 63.9898 206.339 62.7695C207.072 61.5565 208.003 60.4686 209.132 59.5129C209.828 58.991 210.517 58.6014 211.213 58.3441C212.078 58.2559 212.811 58.4764 213.419 58.9984C213.94 59.6085 214.284 60.1672 214.46 60.6891C214.636 61.211 214.805 61.733 214.981 62.2549L215.112 63.0341C215.2 63.4678 215.325 63.9016 215.501 64.3353C215.677 64.769 215.933 65.0777 216.278 65.2468C216.71 65.4232 217.165 65.4894 217.641 65.4453C218.118 65.4012 218.484 65.335 218.748 65.2468C219.525 65.0704 220.243 64.8352 220.888 64.5338C221.54 64.2324 222.075 63.9898 222.515 63.8207L222.647 63.6884C222.823 63.6002 222.926 63.534 222.97 63.4899C223.014 63.4458 223.116 63.3796 223.292 63.2914C223.38 63.2032 223.505 63.1223 223.681 63.0268C224.289 62.7695 224.677 62.6372 224.846 62.6372H224.978V62.7695L225 62.7842Z" fill="#FDE8E4"/>
<path d="M168.189 69.3781C168.204 69.7457 166.767 70.8704 166.767 70.8704C165.983 71.3335 165.309 72.0907 164.033 71.9731C162.524 71.8408 161.966 70.3705 161.607 69.1135C161.146 67.4815 160.874 65.7981 160.933 64.0927C160.933 63.9456 160.984 63.7177 161.006 63.6001C161.028 63.4825 161.021 63.4899 161.05 63.3796C160.735 63.9309 160.647 64.1147 160.303 64.769C159.958 65.4232 159.321 66.592 158.925 67.3125C158.529 68.0402 158.221 68.768 157.906 69.481C157.591 70.1941 157.195 70.8042 156.726 71.385C156.264 71.9657 155.861 72.495 155.392 73.0463C154.916 73.5977 154.373 74.0535 153.779 74.4651C153.413 74.7224 152.907 74.8327 152.504 74.8694C152.101 74.9062 151.566 74.7371 151.295 74.6048C150.533 74.2446 149.785 73.4948 149.609 72.8038C149.228 71.26 149.316 69.8927 149.719 68.4813C150.122 67.0699 150.826 65.8716 151.654 64.7763C152.482 63.681 153.494 62.9459 154.659 62.4019C155.817 61.8653 156.924 61.8285 158.119 61.9167C158.851 61.9682 159.005 62.4387 158.851 63.0635C158.698 63.6883 158.382 64.0412 157.708 64.0706C155.788 64.1588 154.476 64.7175 153.069 66.0701C152.695 66.4303 152.292 66.8567 152.042 67.3419C151.793 67.8197 151.537 68.349 151.397 68.8635C151.258 69.3781 151.199 69.9001 151.112 70.4146C151.024 70.9219 151.082 71.4879 151.221 71.9437C151.361 72.3994 151.471 72.7303 151.888 72.9434C152.306 73.1566 152.57 73.3036 153.039 72.9728C153.977 72.3112 154.652 71.3409 155.392 70.3779C155.898 69.7236 156.491 68.9371 156.88 68.1652C157.276 67.3933 157.518 66.7097 157.921 65.879C158.324 65.0557 158.91 64.1074 159.299 63.2032C159.35 63.0929 159.401 62.99 159.467 62.8871C159.555 62.7474 159.687 62.6224 159.797 62.5048C159.922 62.3725 160.054 62.2402 160.2 62.1152C160.427 61.9167 160.75 61.6594 161.065 61.6888C161.204 61.6962 161.351 61.7256 161.468 61.7917C161.666 61.8947 161.93 62.152 162.032 62.3578C162.091 62.4754 162.106 62.6004 162.12 62.7253C162.142 62.9532 162.186 63.1738 162.201 63.4017C162.23 63.8427 162.216 64.2911 162.223 64.7322C162.238 65.1659 162.252 65.5996 162.267 66.0407C162.267 66.2171 162.289 66.4009 162.289 66.5773C162.318 67.3419 162.45 68.4445 162.611 69.0326C162.751 69.5325 162.927 70.0544 163.278 70.444C163.601 70.7969 164.202 71.1497 164.686 71.0027C165.016 70.8998 165.257 70.7013 165.551 70.5176C165.946 70.2676 166.386 69.8927 166.745 69.6134C168.856 67.9594 168.16 69.3855 168.16 69.3855" fill="#FDE8E4"/>
<path d="M14.527 66.0034C15.0474 65.3418 15.3039 64.1877 15.3039 62.5557C15.3039 60.9238 15.0474 59.7697 14.527 59.1081C14.0066 58.4391 13.1417 58.1083 11.9177 58.1083C10.6937 58.1083 9.82881 58.4391 9.30842 59.1081C8.78803 59.7697 8.5315 60.9238 8.5315 62.5557C8.5315 64.1877 8.78803 65.3418 9.30842 66.0034C9.82881 66.665 10.6937 67.0032 11.9177 67.0032C13.1417 67.0032 14.0066 66.6724 14.527 66.0034ZM3.02706 71.4506C1.01146 69.6275 0.00732422 66.665 0.00732422 62.5557C0.00732422 58.4465 1.01146 55.4839 3.02706 53.6609C5.04267 51.8378 8.00377 50.9336 11.9177 50.9336C15.8316 50.9336 18.8001 51.8451 20.8157 53.6609C22.8313 55.4839 23.8354 58.4465 23.8354 62.5557C23.8354 66.665 22.824 69.6275 20.8157 71.4506C18.8001 73.2737 15.8316 74.1852 11.9177 74.1852C8.00377 74.1852 5.03534 73.2737 3.02706 71.4506Z" fill="#F47D72"/>
</g>
<defs>
<clipPath id="clip0_9069_4100">
<rect width="225" height="90" fill="white" transform="translate(0 0.181641)"/>
</clipPath>
</defs>
</svg>
