<svg width="20" height="21" viewBox="0 0 20 21" fill="none" xmlns="http://www.w3.org/2000/svg">
<g clip-path="url(#clip0_9069_4260)">
<path d="M10 1.98242C12.6719 1.98242 12.9883 1.99414 14.0391 2.04102C15.0156 2.08398 15.543 2.24805 15.8945 2.38477C16.3594 2.56445 16.6953 2.7832 17.043 3.13086C17.3945 3.48242 17.6094 3.81445 17.7891 4.2793C17.9258 4.63086 18.0898 5.16211 18.1328 6.13477C18.1797 7.18945 18.1914 7.50586 18.1914 10.1738C18.1914 12.8457 18.1797 13.1621 18.1328 14.2129C18.0898 15.1895 17.9258 15.7168 17.7891 16.0684C17.6094 16.5332 17.3906 16.8691 17.043 17.2168C16.6914 17.5684 16.3594 17.7832 15.8945 17.9629C15.543 18.0996 15.0117 18.2637 14.0391 18.3066C12.9844 18.3535 12.668 18.3652 10 18.3652C7.32813 18.3652 7.01172 18.3535 5.96094 18.3066C4.98438 18.2637 4.45703 18.0996 4.10547 17.9629C3.64063 17.7832 3.30469 17.5645 2.95703 17.2168C2.60547 16.8652 2.39063 16.5332 2.21094 16.0684C2.07422 15.7168 1.91016 15.1855 1.86719 14.2129C1.82031 13.1582 1.80859 12.8418 1.80859 10.1738C1.80859 7.50195 1.82031 7.18555 1.86719 6.13477C1.91016 5.1582 2.07422 4.63086 2.21094 4.2793C2.39063 3.81445 2.60938 3.47852 2.95703 3.13086C3.30859 2.7793 3.64063 2.56445 4.10547 2.38477C4.45703 2.24805 4.98828 2.08398 5.96094 2.04102C7.01172 1.99414 7.32813 1.98242 10 1.98242ZM10 0.181641C7.28516 0.181641 6.94531 0.193359 5.87891 0.240234C4.81641 0.287109 4.08594 0.458984 3.45313 0.705078C2.79297 0.962891 2.23438 1.30273 1.67969 1.86133C1.12109 2.41602 0.78125 2.97461 0.523438 3.63086C0.277344 4.26758 0.105469 4.99414 0.0585938 6.05664C0.0117188 7.12695 0 7.4668 0 10.1816C0 12.8965 0.0117188 13.2363 0.0585938 14.3027C0.105469 15.3652 0.277344 16.0957 0.523438 16.7285C0.78125 17.3887 1.12109 17.9473 1.67969 18.502C2.23438 19.0566 2.79297 19.4004 3.44922 19.6543C4.08594 19.9004 4.8125 20.0723 5.875 20.1191C6.94141 20.166 7.28125 20.1777 9.99609 20.1777C12.7109 20.1777 13.0508 20.166 14.1172 20.1191C15.1797 20.0723 15.9102 19.9004 16.543 19.6543C17.1992 19.4004 17.7578 19.0566 18.3125 18.502C18.8672 17.9473 19.2109 17.3887 19.4648 16.7324C19.7109 16.0957 19.8828 15.3691 19.9297 14.3066C19.9766 13.2402 19.9883 12.9004 19.9883 10.1855C19.9883 7.4707 19.9766 7.13086 19.9297 6.06445C19.8828 5.00195 19.7109 4.27148 19.4648 3.63867C19.2188 2.97461 18.8789 2.41602 18.3203 1.86133C17.7656 1.30664 17.207 0.962891 16.5508 0.708984C15.9141 0.462891 15.1875 0.291016 14.125 0.244141C13.0547 0.193359 12.7148 0.181641 10 0.181641Z" fill="#1E1541"/>
<path d="M10 5.04492C7.16406 5.04492 4.86328 7.3457 4.86328 10.1816C4.86328 13.0176 7.16406 15.3184 10 15.3184C12.8359 15.3184 15.1367 13.0176 15.1367 10.1816C15.1367 7.3457 12.8359 5.04492 10 5.04492ZM10 13.5137C8.16016 13.5137 6.66797 12.0215 6.66797 10.1816C6.66797 8.3418 8.16016 6.84961 10 6.84961C11.8398 6.84961 13.332 8.3418 13.332 10.1816C13.332 12.0215 11.8398 13.5137 10 13.5137Z" fill="#1E1541"/>
<path d="M16.5391 4.8418C16.5391 5.50586 16 6.04102 15.3398 6.04102C14.6758 6.04102 14.1406 5.50196 14.1406 4.8418C14.1406 4.17774 14.6797 3.64258 15.3398 3.64258C16 3.64258 16.5391 4.18164 16.5391 4.8418Z" fill="#1E1541"/>
</g>
<defs>
<clipPath id="clip0_9069_4260">
<rect width="20" height="20" fill="white" transform="translate(0 0.181641)"/>
</clipPath>
</defs>
</svg>
