<svg width="20" height="19" viewBox="0 0 20 19" fill="none" xmlns="http://www.w3.org/2000/svg">
<path d="M4.99648 2.62032C4.99648 3.66944 4.17445 4.51408 2.79804 4.51408C1.49809 4.51408 0.666504 3.66944 0.666504 2.62032C0.666504 1.54452 1.5172 0.726562 2.84583 0.726562C4.17445 0.726562 4.97736 1.54452 4.99648 2.62032ZM0.781205 6.01664H4.86266V18.2416H0.781205V6.01664ZM7.30962 9.91974C7.30962 8.3905 7.25227 7.11911 7.19492 6.01664H10.7411L10.9323 7.72369H11.0087C11.544 6.92351 12.8726 5.74991 15.0711 5.74991C17.7474 5.74991 19.7738 7.43029 19.7738 11.0222V18.2416H15.6828V11.4667C15.6828 9.88417 15.0997 8.81727 13.6182 8.81727C12.4903 8.81727 11.8116 9.53743 11.5249 10.2309C11.4102 10.4888 11.3911 10.8444 11.3911 11.1822V18.2327H7.30962V9.91974Z" fill="#1E1541"/>
</svg>
