<svg width="20" height="15" viewBox="0 0 20 15" fill="none" xmlns="http://www.w3.org/2000/svg">
<g id="Lozenge">
<path id="Vector" d="M19.8008 3.18164C19.8008 3.18164 19.6055 1.80273 19.0039 1.19727C18.2422 0.400391 17.3906 0.396484 17 0.349609C14.2031 0.146484 10.0039 0.146484 10.0039 0.146484H9.99609C9.99609 0.146484 5.79688 0.146484 3 0.349609C2.60938 0.396484 1.75781 0.400391 0.996094 1.19727C0.394531 1.80273 0.203125 3.18164 0.203125 3.18164C0.203125 3.18164 0 4.80273 0 6.41992V7.93555C0 9.55273 0.199219 11.1738 0.199219 11.1738C0.199219 11.1738 0.394531 12.5527 0.992187 13.1582C1.75391 13.9551 2.75391 13.9277 3.19922 14.0137C4.80078 14.166 10 14.2129 10 14.2129C10 14.2129 14.2031 14.2051 17 14.0059C17.3906 13.959 18.2422 13.9551 19.0039 13.1582C19.6055 12.5527 19.8008 11.1738 19.8008 11.1738C19.8008 11.1738 20 9.55664 20 7.93555V6.41992C20 4.80273 19.8008 3.18164 19.8008 3.18164ZM7.93359 9.77539V4.1543L13.3359 6.97461L7.93359 9.77539Z" fill="#1E1541"/>
</g>
</svg>
