<svg id="svgPath" xmlns="http://www.w3.org/2000/svg" xmlns:xlink="http://www.w3.org/1999/xlink" width="1440" height="890" viewBox="0 0 1440 890" fill="none">

<path d="M1583 558C1601.29 160.4 1628.93 106.312 1448 -26C1359.42 -90.5355 802.456 -41.9087 677.509 -35.951C370.013 -21.2905 195.313 -192.731 -11.4994 -26C-127.5 103.5 -82.7542 585.928 -41.4994 698C4.73015 823.587 -8.39275 823.055 192 867.5C405.5 914.851 583.001 862.242 766.5 877C1153.5 908.124 1583 907.069 1583 558Z" fill="black"/>
<path d="M1583 558C1601.29 160.4 1628.93 106.312 1448 -26C1359.42 -90.5355 802.456 -41.9087 677.509 -35.951C370.013 -21.2905 195.313 -192.731 -11.4994 -26C-127.5 103.5 -82.7542 585.928 -41.4994 698C4.73015 823.587 -8.39275 823.055 192 867.5C405.5 914.851 583.001 862.242 766.5 877C1153.5 908.124 1583 907.069 1583 558Z" fill="url(#pattern0_9069_1334)"/>
<path d="M1583 558C1601.29 160.4 1628.93 106.312 1448 -26C1359.42 -90.5355 802.456 -41.9087 677.509 -35.951C370.013 -21.2905 195.313 -192.731 -11.4994 -26C-127.5 103.5 -82.7542 585.928 -41.4994 698C4.73015 823.587 -8.39275 823.055 192 867.5C405.5 914.851 583.001 862.242 766.5 877C1153.5 908.124 1583 907.069 1583 558Z" fill="url(#pattern1_9069_1334)"/>
<path d="M1583 558C1601.29 160.4 1628.93 106.312 1448 -26C1359.42 -90.5355 802.456 -41.9087 677.509 -35.951C370.013 -21.2905 195.313 -192.731 -11.4994 -26C-127.5 103.5 -82.7542 585.928 -41.4994 698C4.73015 823.587 -8.39275 823.055 192 867.5C405.5 914.851 583.001 862.242 766.5 877C1153.5 908.124 1583 907.069 1583 558Z" fill="black" fill-opacity="0.3"/>


</svg>