<svg width="14" height="10" viewBox="0 0 14 10" fill="none" xmlns="http://www.w3.org/2000/svg">
<path class="dark" d="M13.7619 1.26074L10.1514 4.62071L13.7619 7.99474C13.7761 7.92444 13.7761 7.85415 13.7761 7.78386V1.45756C13.7761 1.38727 13.7761 1.31698 13.7619 1.26074Z" fill="#193124"/>
<path class="dark" d="M8.17618 5.50619L13.4498 0.571676C13.1939 0.248332 12.7959 0.0515137 12.3553 0.0515137H2.40507C1.96442 0.0515137 1.56641 0.248332 1.31055 0.571676L6.59836 5.50619C7.0248 5.91388 7.73553 5.91388 8.17618 5.50619Z" fill="#193124"/>
<path class="dark" d="M0.997125 1.24634C0.98291 1.31663 0.98291 1.38692 0.98291 1.45721V7.78351C0.98291 7.85381 0.98291 7.9241 0.997125 7.99439L4.60762 4.62036L0.997125 1.24634Z" fill="#193124"/>
<path class="dark" d="M8.65947 6.02625C8.30411 6.34959 7.84924 6.51829 7.38016 6.51829C6.91108 6.51829 6.45622 6.34959 6.10085 6.02625L5.12005 5.11245L1.31055 8.66923C1.56641 8.99258 1.96442 9.18939 2.40507 9.18939H12.3553C12.7959 9.18939 13.1939 8.99258 13.4498 8.66923L9.64028 5.09839L8.65947 6.02625Z" fill="#193124"/>
</svg>
