<?xml version="1.0" encoding="utf-8"?>
<!-- Generator: Adobe Illustrator 17.0.0, SVG Export Plug-In . SVG Version: 6.00 Build 0)  -->
<!DOCTYPE svg PUBLIC "-//W3C//DTD SVG 1.1//EN" "http://www.w3.org/Graphics/SVG/1.1/DTD/svg11.dtd">
<svg version="1.1" id="Layer_1" xmlns="http://www.w3.org/2000/svg" xmlns:xlink="http://www.w3.org/1999/xlink" x="0px" y="0px"
	 width="1024px" height="1024px" viewBox="0 0 1024 1024" enable-background="new 0 0 1024 1024" xml:space="preserve">
<path fill="#FF0000" d="M1014.662,822.66c-0.004-0.004-0.008-0.008-0.012-0.01L704.006,512l310.644-310.65
	c0.004-0.004,0.008-0.006,0.012-0.01c3.344-3.346,5.762-7.254,7.312-11.416c4.246-11.376,1.824-24.682-7.324-33.83L867.904,9.348
	c-9.148-9.146-22.45-11.566-33.828-7.32c-4.16,1.55-8.07,3.968-11.418,7.31c0,0.004-0.004,0.006-0.008,0.01L512.002,320
	L201.354,9.35c-0.004-0.004-0.006-0.006-0.01-0.01c-3.346-3.342-7.254-5.76-11.414-7.31c-11.38-4.248-24.682-1.826-33.83,7.32
	L9.352,156.098c-9.148,9.148-11.568,22.452-7.322,33.828c1.552,4.16,3.97,8.072,7.312,11.416c0.004,0.002,0.006,0.006,0.01,0.01
	L320.002,512L9.352,822.652c-0.002,0.004-0.006,0.006-0.008,0.01c-3.342,3.346-5.76,7.254-7.314,11.414
	c-4.248,11.376-1.826,24.682,7.322,33.83L156.1,1014.652c9.15,9.148,22.452,11.568,33.83,7.322c4.16-1.552,8.07-3.97,11.416-7.312
	c0.002-0.004,0.006-0.006,0.01-0.01l310.648-310.65l310.648,310.65c0.004,0.002,0.008,0.006,0.012,0.008
	c3.348,3.344,7.254,5.762,11.414,7.314c11.378,4.246,24.684,1.826,33.828-7.322l146.746-146.748
	c9.148-9.148,11.57-22.454,7.324-33.83C1020.424,829.914,1018.006,826.006,1014.662,822.66L1014.662,822.66z"/>
</svg>
