<svg width="24" height="24" viewBox="0 0 24 24" xmlns="http://www.w3.org/2000/svg">
<path d="M11.9882 2.16372C15.1899 2.16372 15.57 2.17834 16.8273 2.23682C17.9969 2.2953 18.6255 2.48535 19.0495 2.64617C19.6051 2.86547 20.0144 3.12862 20.4238 3.53798C20.8477 3.96195 21.0963 4.35668 21.3156 4.91223C21.4764 5.3362 21.6811 5.96485 21.7249 7.13443C21.7834 8.39173 21.798 8.77184 21.798 11.9736C21.798 15.1753 21.7834 15.5554 21.7249 16.8127C21.6664 17.9823 21.4764 18.6109 21.3156 19.0349C21.0963 19.5904 20.8331 19.9998 20.4238 20.4091C19.9998 20.8331 19.6051 21.0817 19.0495 21.3009C18.6255 21.4618 17.9969 21.6664 16.8273 21.7103C15.57 21.7688 15.1899 21.7834 11.9882 21.7834C8.78646 21.7834 8.40635 21.7688 7.14905 21.7103C5.97947 21.6518 5.35082 21.4618 4.92685 21.3009C4.3713 21.0817 3.96195 20.8185 3.55259 20.4091C3.12862 19.9852 2.88009 19.5904 2.66079 19.0349C2.49997 18.6109 2.2953 17.9823 2.25144 16.8127C2.19296 15.5554 2.17834 15.1753 2.17834 11.9736C2.17834 8.77184 2.19296 8.39173 2.25144 7.13443C2.30992 5.96485 2.49997 5.3362 2.66079 4.91223C2.88009 4.35668 3.14324 3.94733 3.55259 3.53798C3.97657 3.114 4.3713 2.86547 4.92685 2.64617C5.35082 2.48535 5.97947 2.28068 7.14905 2.23682C8.40635 2.17834 8.78646 2.16372 11.9882 2.16372ZM11.9882 0C8.72798 0 8.31863 0.0146197 7.04671 0.0730987C5.77479 0.131578 4.89761 0.336254 4.13738 0.628648C3.34792 0.935663 2.67541 1.34502 2.01752 2.01752C1.34502 2.69003 0.935663 3.34792 0.628648 4.13738C0.336254 4.89761 0.131578 5.77479 0.0730987 7.04671C0.0146197 8.31863 0 8.72798 0 11.9882C0 15.2484 0.0146197 15.6577 0.0730987 16.9296C0.131578 18.2016 0.336254 19.0788 0.628648 19.839C0.935663 20.6284 1.34502 21.3009 2.01752 21.9588C2.69003 22.6313 3.34792 23.0407 4.13738 23.3477C4.89761 23.6401 5.77479 23.8448 7.04671 23.9033C8.31863 23.9617 8.72798 23.9764 11.9882 23.9764C15.2484 23.9764 15.6577 23.9617 16.9296 23.9033C18.2016 23.8448 19.0788 23.6401 19.839 23.3477C20.6284 23.0407 21.3009 22.6313 21.9588 21.9588C22.6313 21.2863 23.0407 20.6284 23.3477 19.839C23.6401 19.0788 23.8448 18.2016 23.9033 16.9296C23.9617 15.6577 23.9764 15.2484 23.9764 11.9882C23.9764 8.72798 23.9617 8.31863 23.9033 7.04671C23.8448 5.77479 23.6401 4.89761 23.3477 4.13738C23.0407 3.34792 22.6313 2.67541 21.9588 2.01752C21.2863 1.34502 20.6284 0.935663 19.839 0.628648C19.0788 0.336254 18.2016 0.131578 16.9296 0.0730987C15.6577 0.0146197 15.2484 0 11.9882 0Z"/>
<path d="M11.9882 5.83331C8.58176 5.83331 5.83325 8.59644 5.83325 11.9882C5.83325 15.38 8.59638 18.1431 11.9882 18.1431C15.3799 18.1431 18.1431 15.38 18.1431 11.9882C18.1431 8.59644 15.3946 5.83331 11.9882 5.83331ZM11.9882 15.9794C9.78058 15.9794 7.99697 14.1958 7.99697 11.9882C7.99697 9.78064 9.78058 7.99703 11.9882 7.99703C14.1957 7.99703 15.9793 9.78064 15.9793 11.9882C15.9793 14.1958 14.1957 15.9794 11.9882 15.9794Z"/>
<path d="M18.3917 7.01763C19.183 7.01763 19.8245 6.37617 19.8245 5.58489C19.8245 4.79362 19.183 4.15216 18.3917 4.15216C17.6004 4.15216 16.959 4.79362 16.959 5.58489C16.959 6.37617 17.6004 7.01763 18.3917 7.01763Z"/>
</svg>
