<svg width="11" height="10" viewBox="0 0 11 10" xmlns="http://www.w3.org/2000/svg">
<path class="dark" d="M2.55625 1.38245C2.55625 1.96045 2.09719 2.42579 1.32853 2.42579C0.60258 2.42579 0.138184 1.96045 0.138184 1.38245C0.138184 0.789755 0.613256 0.339111 1.35522 0.339111C2.09719 0.339111 2.54557 0.789755 2.55625 1.38245ZM0.202238 3.2536H2.48152V9.98877H0.202238V3.2536ZM3.84802 5.40396C3.84802 4.56145 3.81599 3.86099 3.78396 3.2536H5.76432L5.87108 4.19407H5.91378C6.2127 3.75323 6.95467 3.10665 8.18239 3.10665C9.677 3.10665 10.8086 4.03243 10.8086 6.01134V9.98877H8.52401V6.25626C8.52401 5.38436 8.1984 4.79657 7.37103 4.79657C6.74116 4.79657 6.36216 5.19333 6.20203 5.5754C6.13797 5.71745 6.1273 5.91338 6.1273 6.09951V9.98387H3.84802V5.40396Z"/>
</svg>
