<svg class="logo-transparent" xmlns="http://www.w3.org/2000/svg" width="159" height="64" viewBox="0 0 159 64" fill="none">
  <g clip-path="url(#clip0_9060_348)">
    <path d="M30.2378 43.5762C31.2012 43.5762 31.6829 43.1632 31.6829 42.3425C31.6829 41.8982 31.5741 41.5741 31.3514 41.365C31.1338 41.1611 30.792 41.0566 30.3362 41.0566H28.7927V43.5762H30.2378ZM22.8726 36.3884H31.7295C33.6718 36.3884 35.1531 36.9373 36.1735 38.0299C37.1938 39.1276 37.7014 40.56 37.7014 42.3373C37.7014 43.3567 37.4425 44.2767 36.9297 45.0922C36.4169 45.9077 35.7436 46.5977 34.9097 47.157C35.2205 47.3714 35.438 47.6432 35.5727 47.9725L37.4321 52.2956H31.2633L29.7198 48.7619C29.637 48.5632 29.5489 48.4273 29.4505 48.3541C29.3521 48.2809 29.2123 48.2443 29.0362 48.2443H28.7927V52.2956H22.8726V36.3884Z" fill="#FDE8E4"/>
    <path d="M45.2273 50.466C43.6372 49.0807 42.8396 47.042 42.8396 44.3394C42.8396 41.6368 43.6269 39.598 45.2014 38.2128C46.776 36.8275 49.112 36.1375 52.2145 36.1375C53.1779 36.1375 54.048 36.2106 54.8198 36.3466C55.5967 36.4877 56.384 36.702 57.1816 37V42.2118C55.6951 41.5218 54.1723 41.1715 52.6029 41.1715C51.3806 41.1715 50.4534 41.412 49.8267 41.8877C49.2 42.3634 48.8841 43.1789 48.8841 44.3341C48.8841 45.4894 49.2052 46.284 49.8526 46.7649C50.4949 47.2511 51.4324 47.4915 52.6547 47.4915C54.2189 47.4915 55.7469 47.1465 57.2334 46.4565V51.6683C56.4358 51.9663 55.6485 52.1858 54.8716 52.3217C54.0946 52.4576 53.2297 52.5308 52.2663 52.5308C49.1689 52.5308 46.8226 51.8408 45.2325 50.4555" fill="#FDE8E4"/>
    <path d="M73.6731 45.2542L72.4714 42.2171L71.2698 45.2542H73.6679H73.6731ZM69.4155 36.3884H75.5584L81.6288 52.2956H75.46L74.336 49.3317H70.6431L69.5191 52.2956H63.3503L69.4207 36.3884H69.4155Z" fill="#FDE8E4"/>
    <path d="M103.237 9.39895C103.196 10.0994 103.175 11.0299 103.118 12.0179C103.061 13.0007 102.958 14.1141 102.901 15.3635C102.844 16.6129 102.813 18.1393 102.787 19.6343C102.771 20.5282 102.735 21.856 102.704 22.9172C102.611 26.2523 102.616 29.3679 102.507 32.8233C102.404 36.2786 102.16 40.0738 101.886 43.6494C101.798 44.7837 101.663 46.0958 101.523 47.2877C101.383 48.4848 101.202 49.7342 100.979 50.9522C100.751 52.1702 100.523 53.43 100.239 54.6584C99.9537 55.8817 99.5756 57.0892 99.1509 58.2811C98.9282 58.9032 98.6795 59.5043 98.3998 60.1212C98.1202 60.7328 97.7731 61.3392 97.3795 61.9037C97.1982 62.1651 96.9133 62.4108 96.6906 62.6251C96.4679 62.8447 96.2141 63.1113 95.9655 63.2472C95.2818 63.6236 94.567 63.9163 93.8212 63.979C93.0702 64.0418 92.4072 63.9163 91.7235 63.7124C91.0398 63.5086 90.4338 63.1322 89.8796 62.7349C89.3254 62.3324 88.9007 61.841 88.4656 61.3549C88.0305 60.8739 87.6058 60.393 87.2691 59.8598C85.9535 57.7583 84.7674 55.5994 83.6849 53.3829C83.1929 52.3688 82.7733 51.292 82.3745 50.2726C81.9757 49.248 81.6338 48.1555 81.3179 47.1622C80.6912 45.1601 80.0748 43.1162 79.5206 41.1716C78.9664 39.2217 78.521 37.4653 77.9823 35.552C77.9357 35.39 77.8684 35.2175 77.8217 35.0554C77.7803 34.8881 77.7648 34.8202 77.7181 34.6424C77.3659 33.3303 77.0811 32.2953 76.7392 30.8943C76.3974 29.4934 76.0659 28.1656 75.7033 26.566C75.3408 24.9664 74.9212 23.0113 74.5328 21.2183C74.4136 20.6642 74.2065 19.6866 74.0407 19.0123C73.6004 17.1931 73.1706 15.3949 72.7251 13.5339C72.2745 11.6729 71.7773 9.68123 71.2697 7.80979C71.1091 7.22432 70.876 6.53952 70.6999 5.99063C70.5187 5.43652 70.2597 4.78831 70.0888 4.33875C69.9178 3.88919 69.7987 3.53372 69.6848 3.19916C69.5656 2.8646 69.4413 2.62936 69.3377 2.41504C69.2341 2.20071 69.1668 2.15889 69.0943 2.01252C69.0166 1.86615 68.9286 1.7616 68.8457 1.67274C68.7628 1.58387 68.6955 1.5891 68.6333 1.53682C68.5712 1.48455 68.509 1.48455 68.4572 1.51068C67.9341 1.77206 67.4679 1.90797 67.0432 2.35231C66.6185 2.79664 66.2715 3.32462 65.9711 3.89964C65.6655 4.47466 65.4169 5.07582 65.2097 5.72926C65.0025 6.38269 64.7228 7.07795 64.5881 7.77843C64.0546 10.4967 63.5678 13.33 63.2933 16.0744C63.0188 18.8189 62.8944 21.7306 62.7805 24.4018C62.6665 27.073 62.6717 29.9534 62.6614 32.426C62.651 34.8986 62.6665 37.7162 62.6665 39.8281C62.6665 43.7905 62.7235 48.0091 62.8271 51.4801C62.9307 54.9512 63.1327 57.131 63.3243 60.2466C63.3451 60.5707 63.3658 60.6753 63.3865 60.8164C63.4486 61.3339 63.516 61.8619 63.5367 62.254C63.5574 62.646 63.4901 62.8656 63.4487 63.1426C63.4072 63.4197 63.4124 63.5504 63.1534 63.5608C62.8944 63.5765 62.8582 63.4302 62.7494 63.1688C62.6407 62.9074 62.5371 62.6826 62.4749 62.301C62.4179 61.9194 62.3402 61.3914 62.2884 60.9001C62.2729 60.7641 62.2522 60.5603 62.2159 60.2728C62.1797 59.9852 62.0916 59.9905 62.0554 59.4939C61.8223 56.5351 61.5996 54.3343 61.4856 51.0097C61.3717 47.6798 61.294 43.6703 61.294 39.8699C61.294 37.7319 61.2836 34.93 61.2888 32.4521C61.2888 29.9743 61.3147 27.0208 61.3976 24.3757C61.439 23.0793 61.5167 21.5685 61.584 20.1937C61.6514 18.8189 61.6876 17.3709 61.8171 15.9542C61.9466 14.5376 62.1227 13.0686 62.3558 11.6468C62.5889 10.2197 62.853 8.78733 63.2208 7.38114C63.5885 5.97495 64.1323 4.60012 64.7021 3.26712C64.873 2.8646 65.1372 2.53527 65.3599 2.1798C65.5826 1.82433 65.7224 1.48977 66.0177 1.18135C66.3129 0.872932 66.6599 0.66906 67.0432 0.459961C67.4265 0.256089 67.846 0.13063 68.2915 0.0260804C68.364 0.010398 68.4831 0.0260804 68.6022 0.0103979C68.7214 -0.00528448 68.9803 -0.0261944 69.115 0.0208529C69.2497 0.0679002 69.3688 0.182905 69.4672 0.256089C69.5604 0.329274 69.5915 0.329274 69.6744 0.397231C69.7573 0.465189 69.778 0.454734 69.8764 0.564511C69.9696 0.674288 70.0991 0.825884 70.2131 0.998391C70.3218 1.1709 70.4617 1.36431 70.586 1.58387C70.7103 1.80342 70.8916 2.16412 71.0366 2.3889C71.1764 2.60845 71.337 2.91688 71.4095 3.11029C71.482 3.30894 71.4406 3.3403 71.4613 3.49713C71.482 3.65395 71.4613 3.46053 71.4613 3.48144C71.7307 4.11397 71.9793 4.78308 72.1916 5.44697C72.404 6.11086 72.6422 6.77998 72.8287 7.4491C73.3208 9.22644 73.7766 11.0927 74.222 12.8648C74.6622 14.6317 75.1077 16.3672 75.5324 18.1079C75.7344 18.9234 75.9571 20.1048 76.1125 20.8001C76.5269 22.6088 76.993 24.5064 77.3711 26.1112C77.7544 27.716 78.0703 29.0386 78.4174 30.4552C78.7644 31.8666 79.0441 32.9592 79.3963 34.2817C79.4429 34.4595 79.5051 34.6215 79.5413 34.7418C79.5776 34.8568 79.5517 34.9143 79.5672 34.9665C80.0386 36.9268 80.5047 38.6937 81.0848 40.6436C81.6649 42.5934 82.2761 44.6112 82.9028 46.6186C83.2136 47.6118 83.571 48.7044 83.9543 49.7342C84.3375 50.764 84.7312 51.8827 85.1921 52.9125C85.6531 53.9423 86.1555 54.9773 86.6942 55.981C87.2329 56.9847 87.7974 58.0093 88.4863 58.9241C89.1752 59.8337 89.9158 60.7798 90.843 61.4176C91.7701 62.0606 92.6506 62.4578 93.7694 62.3899C94.8882 62.3219 95.5149 61.6633 96.2763 60.8635C96.6233 60.5028 96.8771 59.8912 97.1309 59.4102C97.3847 58.9293 97.7058 58.3595 97.8664 57.8263C98.5552 55.5523 99.182 53.1582 99.674 50.8738C99.9433 49.6139 100.073 48.3855 100.259 47.1988C100.446 46.007 100.611 44.674 100.71 43.571C101.078 39.4413 101.368 34.7679 101.533 30.8577C101.699 26.9424 101.803 23.3459 101.958 19.8016C102.036 18.0661 102.067 16.7801 102.129 15.4315C102.191 14.0828 102.31 13.032 102.388 12.0127C102.466 10.9881 102.549 10.0837 102.585 9.37281C102.621 8.65665 102.683 8.26981 102.745 7.84116C102.808 7.41251 102.72 7.41773 103.004 7.44387C103.284 7.47001 103.196 7.45433 103.227 7.88298C103.253 8.3064 103.3 8.70892 103.258 9.4094" fill="#FDE8E4"/>
    <path d="M134.729 32.0602C134.972 32.1856 135.154 32.2797 135.278 32.3372C135.34 32.4 135.371 32.4627 135.371 32.5202C135.309 32.5829 135.247 32.6143 135.19 32.6143C135.128 32.677 134.972 32.7084 134.729 32.7084C134.423 32.7084 134.149 32.677 133.9 32.6143C133.595 32.5516 133.289 32.5045 132.983 32.4732C132.678 32.4418 132.279 32.3947 131.792 32.332C131.362 32.2693 130.891 32.2222 130.373 32.1909C129.85 32.1595 129.254 32.1438 128.581 32.1438H127.39C127.022 32.0811 126.608 32.0393 126.152 32.0027C125.691 31.9713 125.251 31.987 124.821 32.0497H118.579C118.517 32.6038 118.486 33.1475 118.486 33.6702V36.8642C118.486 37.4183 118.517 38.0091 118.579 38.6259C118.579 40.7901 118.641 42.8549 118.761 44.8309C118.885 46.8069 119.004 48.5686 119.128 50.1107C119.19 50.9157 119.253 51.6057 119.31 52.1964C119.372 52.7819 119.434 53.2942 119.491 53.7228C119.553 54.2195 119.615 54.6795 119.672 55.1134C119.734 55.61 119.538 55.9027 119.077 55.9916C118.616 56.0857 118.326 55.8818 118.206 55.3904C118.206 55.0193 118.175 54.5592 118.113 53.9999C118.051 53.5033 117.989 52.9492 117.932 52.3323C117.87 51.7155 117.808 51.0359 117.751 50.2936C117.626 48.6888 117.523 46.8853 117.429 44.878C117.336 42.8706 117.295 40.7901 117.295 38.6259V35.3849C117.295 34.3341 117.326 33.2521 117.388 32.1438C115.679 32.2066 114.068 32.285 112.571 32.3738C111.074 32.4679 109.712 32.5725 108.484 32.6979C108.179 32.6979 107.982 32.515 107.889 32.1438C107.796 31.7727 107.935 31.5583 108.303 31.4956C109.588 31.3754 110.981 31.2813 112.478 31.2186C113.98 31.1558 115.617 31.0931 117.388 31.0356L117.663 26.127L117.937 23.5342L118.03 22.3319L118.217 21.7777V21.6836C118.217 21.5007 118.274 21.3752 118.398 21.3125C118.398 21.187 118.429 21.1243 118.491 21.1243C118.491 20.8786 118.616 20.8159 118.859 20.9413C119.408 21.187 119.641 21.2968 119.548 21.2654C119.455 21.2341 119.439 21.2498 119.501 21.3125C119.563 21.3752 119.594 21.4955 119.594 21.6836C119.594 21.7464 119.626 21.8091 119.688 21.8666C119.688 21.9921 119.672 22.0652 119.641 22.0966C119.61 22.128 119.594 22.175 119.594 22.2378V22.5148C119.594 22.8232 119.563 23.0689 119.501 23.2571L119.32 23.9053V24.4594C119.139 24.956 118.983 25.2645 118.859 25.3847V25.6618C118.859 25.7872 118.843 25.8813 118.812 25.9388C118.781 26.0015 118.766 26.0956 118.766 26.2159C118.704 26.9582 118.657 27.7318 118.631 28.5316C118.6 29.3367 118.584 30.1678 118.584 31.0304H120.055C120.848 31.0304 121.646 31.0461 122.443 31.0774C123.241 31.1088 124.033 31.1245 124.831 31.1245C125.261 31.1245 125.779 31.1402 126.39 31.1715C127.001 31.2029 127.519 31.2813 127.949 31.4015H129.42C129.907 31.4015 130.352 31.4329 130.751 31.4956C131.15 31.5583 131.533 31.6211 131.896 31.6786C132.813 31.804 133.517 31.8981 134.009 31.9556C134.315 32.0184 134.589 32.0497 134.833 32.0497H134.739L134.729 32.0602Z" fill="#FDE8E4"/>
    <path d="M123.256 42.1596C123.07 42.0342 122.951 41.8512 122.889 41.6055C122.826 41.3598 122.826 41.1402 122.889 40.9573C123.07 40.5234 123.407 40.3091 123.899 40.3091C124.142 40.4345 124.235 40.6332 124.173 40.9102C124.111 41.1873 124.049 41.4173 123.987 41.6055V41.5114C123.925 42.008 123.681 42.2223 123.251 42.1596M131.419 47.3453C131.051 47.8419 130.58 48.3176 129.995 48.7828C129.415 49.2481 128.726 49.661 127.928 50.0322C127.561 50.2204 127.131 50.372 126.644 50.4974C126.152 50.6229 125.665 50.6543 125.173 50.5915C124.562 50.4661 124.07 50.189 123.707 49.7604C123.339 49.3265 123.096 48.8978 122.971 48.4639C122.666 47.6014 122.51 46.6448 122.51 45.5941V44.7158C122.51 44.4388 122.542 44.1774 122.604 43.9265V43.6494C122.604 43.4613 122.816 43.3724 123.246 43.3724C123.676 43.3724 123.857 43.4978 123.795 43.7435C123.733 44.052 123.686 44.3604 123.655 44.6688C123.624 44.9772 123.609 45.317 123.609 45.6882C123.609 45.9966 123.64 46.3677 123.702 46.8016C123.764 47.2355 123.852 47.6641 123.976 48.098C124.22 48.9031 124.681 49.3944 125.354 49.5774C125.722 49.7029 126.105 49.7029 126.499 49.5774C126.898 49.4572 127.281 49.3317 127.643 49.2062C128.317 48.8978 128.943 48.5267 129.524 48.0928C130.104 47.6589 130.58 47.2564 130.948 46.8905C131.129 46.7075 131.285 46.535 131.409 46.3782C131.528 46.2266 131.652 46.0854 131.777 45.96C131.901 45.8398 131.989 45.7143 132.051 45.5888C132.232 45.4059 132.357 45.3118 132.419 45.3118C132.481 45.3118 132.543 45.3431 132.6 45.4059C132.662 45.4686 132.693 45.5313 132.693 45.5888C132.693 45.7718 132.662 45.8659 132.6 45.8659C132.538 45.9913 132.398 46.19 132.186 46.4671C131.968 46.7441 131.709 47.0368 131.404 47.3453" fill="#FDE8E4"/>
    <path d="M133.579 48.0354C133.641 48.3438 133.729 48.6052 133.854 48.8247C133.973 49.0391 134.097 49.2743 134.221 49.52C134.465 49.8284 134.739 50.0741 135.045 50.2623C135.351 50.4452 135.718 50.4818 136.148 50.3564C136.884 50.1734 137.464 49.6141 137.894 48.6888C138.324 47.889 138.598 47.0056 138.717 46.0489C138.836 45.0923 138.836 44.1827 138.717 43.315C138.717 42.4524 138.5 41.6474 138.075 40.9051L137.614 40.628H137.246C137.065 40.628 136.894 40.6594 136.744 40.7221C136.588 40.7849 136.454 40.8476 136.329 40.9051C136.024 41.1508 135.765 41.4331 135.547 41.7415C135.335 42.0499 135.164 42.3583 135.045 42.6668C134.802 43.0379 134.553 43.6234 134.309 44.4284C134.128 44.9825 133.988 45.5105 133.895 46.0019C133.802 46.4985 133.724 46.8958 133.667 47.2042L133.574 48.0354H133.579ZM133.211 45.9026C133.274 45.5941 133.331 45.3171 133.393 45.0714C133.455 44.8257 133.517 44.5173 133.574 44.1461C133.698 43.9004 133.802 43.6234 133.895 43.315C133.988 43.0065 134.154 42.6668 134.398 42.2956H134.304C134.486 41.9245 134.703 41.569 134.947 41.2292C135.19 40.8894 135.496 40.5967 135.863 40.351C136.355 39.9798 136.811 39.7969 137.241 39.7969C137.547 39.7969 137.79 39.8596 137.977 39.9798C138.22 40.0426 138.406 40.1367 138.526 40.2569C139.012 40.7535 139.308 41.2449 139.396 41.7363C139.489 42.2329 139.593 42.7243 139.717 43.2209V44.5173C139.717 45.2596 139.639 46.0333 139.489 46.8331C139.334 47.6381 139.075 48.4065 138.707 49.1488C138.463 49.6454 138.158 50.1055 137.79 50.5393C137.422 50.9732 136.935 51.2503 136.324 51.3705C135.651 51.6162 135.102 51.5587 134.672 51.1875C134.491 51.1875 134.273 51.0935 134.03 50.9105L133.849 50.7223H133.942C133.698 50.6021 133.543 50.4452 133.481 50.2571L133.388 50.163C132.839 49.3004 132.471 48.3438 132.284 47.2931C132.165 46.8017 132.103 46.3051 132.103 45.8137V44.5173C132.165 43.592 132.346 42.6981 132.652 41.8304C132.776 41.7049 132.864 41.5219 132.927 41.2763C132.989 41.0306 133.077 40.811 133.201 40.628L133.569 40.4451H133.662C134.03 40.1994 134.273 40.168 134.398 40.351H134.304L134.672 40.534V41.1822C134.672 41.3076 134.657 41.3808 134.625 41.4122C134.594 41.4435 134.579 41.4906 134.579 41.5533C134.398 42.1074 134.118 42.2642 133.755 42.0186C133.755 42.0813 133.74 42.1283 133.709 42.1597C133.678 42.1911 133.662 42.2381 133.662 42.3008C133.419 43.0431 133.263 43.7802 133.201 44.5225V45.913L133.211 45.9026Z" fill="#FDE8E4"/>
    <path d="M159 44.5173V44.7002C159 44.8257 158.876 44.9773 158.632 45.1655C158.57 45.2282 158.477 45.2909 158.358 45.3484C158.233 45.4112 158.114 45.4582 157.99 45.4896C157.866 45.5209 157.746 45.5994 157.622 45.7196C157.317 45.9653 156.918 46.2162 156.431 46.4619C155.939 46.7076 155.421 46.9271 154.872 47.1101C154.566 47.2356 154.23 47.3087 153.862 47.3401C153.494 47.3715 153.064 47.2931 152.577 47.1101C151.966 46.8644 151.63 46.5246 151.567 46.0907C151.443 45.9078 151.365 45.7196 151.339 45.5366C151.308 45.3537 151.231 45.1341 151.112 44.8884C151.049 44.7682 151.018 44.6584 151.018 44.5643C151.018 44.4702 150.987 44.3657 150.925 44.2402C150.863 43.9945 150.77 43.7175 150.651 43.409C150.526 43.1006 150.376 42.8549 150.19 42.6667C150.003 42.4786 149.76 42.3897 149.454 42.3897C149.273 42.4524 149.086 42.5256 148.905 42.6197C148.719 42.7138 148.568 42.8236 148.444 42.9438C147.771 43.5606 147.191 44.3029 146.699 45.1655C146.207 46.0332 145.751 46.8958 145.321 47.7583C145.197 48.0667 145.062 48.3752 144.907 48.6836C144.751 48.992 144.616 49.3004 144.492 49.6088L144.031 50.5341L143.938 50.7171C143.938 50.9 143.814 51.1823 143.57 51.5535C143.265 52.0448 142.99 52.2958 142.741 52.2958H142.648C142.524 52.2958 142.467 52.2644 142.467 52.2017C142.343 52.2017 142.249 52.1076 142.192 51.9246L142.099 51.8305V51.9246C142.037 51.7992 142.006 51.6632 142.006 51.5064C142.006 51.3496 141.975 51.1823 141.913 50.9941L141.82 50.44L141.726 50.0689V44.695C141.726 44.5748 141.742 44.465 141.773 44.3709C141.804 44.2768 141.82 44.2036 141.82 44.1409C141.82 43.7697 141.851 43.3986 141.913 43.0274C141.975 42.6563 142.032 42.3165 142.094 42.0081L142.275 41.2658L142.462 40.8946L142.736 40.6176C142.98 40.4921 143.208 40.5078 143.425 40.6646C143.638 40.8214 143.808 40.9574 143.933 41.0828C143.995 41.3912 144.026 41.6997 144.026 42.0081C144.026 42.3165 143.995 42.5361 143.933 42.6563C143.933 43.2104 143.715 43.4927 143.291 43.4927L143.197 44.7891L143.016 47.476V48.9554L143.109 49.6036L144.301 47.1937C144.787 46.2685 145.295 45.3746 145.813 44.5068C146.331 43.6443 146.989 42.8706 147.786 42.191C148.278 41.8199 148.765 41.5428 149.257 41.3599C149.868 41.2971 150.386 41.454 150.816 41.8251C151.184 42.259 151.428 42.6563 151.552 43.0274C151.676 43.3986 151.795 43.7697 151.92 44.1409L152.013 44.695C152.075 45.0034 152.163 45.3118 152.287 45.6203C152.412 45.9287 152.593 46.1482 152.836 46.2685C153.142 46.3939 153.463 46.441 153.8 46.4096C154.136 46.3783 154.395 46.3312 154.582 46.2685C155.131 46.143 155.638 45.9757 156.094 45.7614C156.555 45.5471 156.933 45.3746 157.244 45.2543L157.337 45.1603C157.462 45.0975 157.534 45.0505 157.565 45.0191C157.596 44.9877 157.669 44.9407 157.793 44.878C157.855 44.8152 157.943 44.7577 158.068 44.6898C158.498 44.5068 158.772 44.4127 158.891 44.4127H158.984V44.5068L159 44.5173Z" fill="#FDE8E4"/>
    <path d="M118.854 49.2062C118.864 49.4675 117.849 50.2673 117.849 50.2673C117.295 50.5967 116.818 51.1351 115.917 51.0515C114.85 50.9574 114.456 49.9119 114.203 49.018C113.876 47.8575 113.685 46.6604 113.726 45.4476C113.726 45.3431 113.762 45.181 113.778 45.0974C113.793 45.0137 113.788 45.0189 113.809 44.9405C113.586 45.3326 113.524 45.4633 113.281 45.9285C113.037 46.3938 112.587 47.2249 112.307 47.7372C112.027 48.2548 111.81 48.7723 111.587 49.2793C111.364 49.7864 111.085 50.2203 110.753 50.6333C110.427 51.0462 110.142 51.4226 109.81 51.8147C109.474 52.2067 109.09 52.5308 108.671 52.8236C108.412 53.0065 108.055 53.0849 107.77 53.1111C107.485 53.1372 107.107 53.017 106.915 52.9229C106.376 52.6667 105.848 52.1335 105.724 51.6422C105.454 50.5444 105.517 49.5721 105.801 48.5684C106.086 47.5647 106.584 46.7127 107.169 45.9338C107.754 45.1549 108.469 44.6321 109.292 44.2453C110.111 43.8637 110.893 43.8375 111.737 43.9003C112.255 43.9369 112.364 44.2714 112.255 44.7158C112.146 45.1601 111.924 45.411 111.447 45.4319C110.09 45.4947 109.163 45.8919 108.168 46.8538C107.904 47.1099 107.619 47.4131 107.443 47.7581C107.267 48.0979 107.086 48.4743 106.988 48.8402C106.889 49.2062 106.848 49.5773 106.786 49.9432C106.723 50.3039 106.765 50.7064 106.863 51.0305C106.962 51.3547 107.039 51.5899 107.335 51.7415C107.63 51.8931 107.816 51.9976 108.148 51.7624C108.811 51.2919 109.287 50.6019 109.81 49.9171C110.168 49.4518 110.587 48.8925 110.862 48.3436C111.142 47.7947 111.312 47.3086 111.597 46.7179C111.882 46.1324 112.297 45.4581 112.571 44.8151C112.607 44.7367 112.644 44.6635 112.69 44.5903C112.752 44.491 112.846 44.4021 112.923 44.3185C113.011 44.2244 113.105 44.1303 113.208 44.0414C113.369 43.9003 113.597 43.7173 113.819 43.7382C113.918 43.7434 114.021 43.7644 114.104 43.8114C114.244 43.8846 114.431 44.0675 114.503 44.2139C114.544 44.2976 114.555 44.3864 114.565 44.4753C114.581 44.6373 114.612 44.7942 114.622 44.9562C114.643 45.2699 114.633 45.5887 114.638 45.9024C114.648 46.2108 114.658 46.5192 114.669 46.8329C114.669 46.9583 114.684 47.089 114.684 47.2145C114.705 47.7581 114.798 48.5423 114.912 48.9605C115.011 49.3159 115.135 49.6871 115.384 49.9641C115.611 50.2151 116.036 50.466 116.378 50.3614C116.611 50.2882 116.782 50.1471 116.989 50.0164C117.269 49.8387 117.58 49.5721 117.833 49.3734C119.325 48.1973 118.833 49.2114 118.833 49.2114" fill="#FDE8E4"/>
    <path d="M10.2657 46.8069C10.6334 46.3364 10.8147 45.5157 10.8147 44.3552C10.8147 43.1947 10.6334 42.374 10.2657 41.9035C9.89795 41.4278 9.28677 41.1926 8.4218 41.1926C7.55682 41.1926 6.94564 41.4278 6.5779 41.9035C6.21016 42.374 6.02887 43.1947 6.02887 44.3552C6.02887 45.5157 6.21016 46.3364 6.5779 46.8069C6.94564 47.2774 7.55682 47.5178 8.4218 47.5178C9.28677 47.5178 9.89795 47.2826 10.2657 46.8069ZM2.13908 50.6805C0.714717 49.384 0.00512695 47.2774 0.00512695 44.3552C0.00512695 41.4331 0.714717 39.3264 2.13908 38.03C3.56344 36.7336 5.65595 36.0906 8.4218 36.0906C11.1876 36.0906 13.2853 36.7388 14.7097 38.03C16.1341 39.3264 16.8437 41.4331 16.8437 44.3552C16.8437 47.2774 16.1289 49.384 14.7097 50.6805C13.2853 51.9769 11.1876 52.6251 8.4218 52.6251C5.65595 52.6251 3.55826 51.9769 2.13908 50.6805Z" fill="#FDE8E4"/>
  </g>
  <defs>
    <clipPath id="clip0_9060_348">
      <rect width="159" height="64" fill="white"/>
    </clipPath>
  </defs>
</svg>

<svg class="logo-dark" xmlns="http://www.w3.org/2000/svg" width="159" height="64" viewBox="0 0 159 64" fill="none">
  <g clip-path="url(#clip0_9060_1990)">
    <path d="M30.2383 43.5762C31.2017 43.5762 31.6834 43.1632 31.6834 42.3425C31.6834 41.8982 31.5746 41.5741 31.3519 41.365C31.1343 41.1611 30.7925 41.0566 30.3367 41.0566H28.7932V43.5762H30.2383ZM22.873 36.3884H31.73C33.6723 36.3884 35.1536 36.9373 36.174 38.0299C37.1943 39.1276 37.7019 40.56 37.7019 42.3373C37.7019 43.3567 37.443 44.2767 36.9302 45.0922C36.4174 45.9077 35.7441 46.5977 34.9102 47.157C35.221 47.3714 35.4385 47.6432 35.5732 47.9725L37.4326 52.2956H31.2638L29.7203 48.7619C29.6375 48.5632 29.5494 48.4273 29.451 48.3541C29.3526 48.2809 29.2127 48.2443 29.0366 48.2443H28.7932V52.2956H22.873V36.3884Z" fill="#F47D72"/>
    <path d="M45.2276 50.466C43.6375 49.0807 42.8398 47.042 42.8398 44.3394C42.8398 41.6368 43.6271 39.598 45.2017 38.2128C46.7763 36.8275 49.1122 36.1375 52.2147 36.1375C53.1781 36.1375 54.0483 36.2106 54.82 36.3466C55.5969 36.4877 56.3842 36.702 57.1819 37V42.2118C55.6953 41.5218 54.1726 41.1715 52.6032 41.1715C51.3808 41.1715 50.4537 41.412 49.827 41.8877C49.2003 42.3634 48.8843 43.1789 48.8843 44.3341C48.8843 45.4894 49.2054 46.284 49.8529 46.7649C50.4951 47.2511 51.4326 47.4915 52.655 47.4915C54.2192 47.4915 55.7471 47.1465 57.2336 46.4565V51.6683C56.436 51.9663 55.6487 52.1858 54.8718 52.3217C54.0949 52.4576 53.2299 52.5308 52.2665 52.5308C49.1692 52.5308 46.8229 51.8408 45.2328 50.4555" fill="#F47D72"/>
    <path d="M73.6733 45.2542L72.4717 42.2171L71.27 45.2542H73.6681H73.6733ZM69.4158 36.3884H75.5586L81.629 52.2956H75.4602L74.3363 49.3317H70.6433L69.5194 52.2956H63.3506L69.4209 36.3884H69.4158Z" fill="#F47D72"/>
    <path d="M103.237 9.39895C103.196 10.0994 103.175 11.0299 103.118 12.0179C103.061 13.0007 102.958 14.1141 102.901 15.3635C102.844 16.6129 102.813 18.1393 102.787 19.6343C102.771 20.5282 102.735 21.856 102.704 22.9172C102.611 26.2523 102.616 29.3679 102.507 32.8233C102.403 36.2786 102.16 40.0738 101.885 43.6494C101.797 44.7837 101.663 46.0958 101.523 47.2877C101.383 48.4848 101.202 49.7342 100.979 50.9522C100.751 52.1702 100.523 53.43 100.238 54.6584C99.9535 55.8817 99.5753 57.0892 99.1506 58.2811C98.9279 58.9032 98.6793 59.5043 98.3996 60.1212C98.1199 60.7328 97.7729 61.3392 97.3792 61.9037C97.198 62.1651 96.9131 62.4108 96.6904 62.6251C96.4677 62.8447 96.2139 63.1113 95.9652 63.2472C95.2816 63.6236 94.5668 63.9163 93.8209 63.979C93.0699 64.0418 92.4069 63.9163 91.7232 63.7124C91.0396 63.5086 90.4335 63.1322 89.8793 62.7349C89.3251 62.3324 88.9004 61.841 88.4653 61.3549C88.0303 60.8739 87.6056 60.393 87.2689 59.8598C85.9533 57.7583 84.7672 55.5994 83.6847 53.3829C83.1926 52.3688 82.7731 51.292 82.3743 50.2726C81.9754 49.248 81.6336 48.1555 81.3176 47.1622C80.6909 45.1601 80.0746 43.1162 79.5204 41.1716C78.9662 39.2217 78.5207 37.4653 77.9821 35.552C77.9354 35.39 77.8681 35.2175 77.8215 35.0554C77.7801 34.8881 77.7645 34.8202 77.7179 34.6424C77.3657 33.3303 77.0808 32.2953 76.739 30.8943C76.3971 29.4934 76.0656 28.1656 75.7031 26.566C75.3405 24.9664 74.921 23.0113 74.5325 21.2183C74.4134 20.6642 74.2062 19.6866 74.0405 19.0123C73.6002 17.1931 73.1703 15.3949 72.7249 13.5339C72.2743 11.6729 71.777 9.68123 71.2694 7.80979C71.1089 7.22432 70.8758 6.53952 70.6997 5.99063C70.5184 5.43652 70.2594 4.78831 70.0885 4.33875C69.9176 3.88919 69.7985 3.53372 69.6845 3.19916C69.5654 2.8646 69.4411 2.62936 69.3375 2.41504C69.2339 2.20071 69.1666 2.15889 69.094 2.01252C69.0164 1.86615 68.9283 1.7616 68.8454 1.67274C68.7626 1.58387 68.6952 1.5891 68.6331 1.53682C68.5709 1.48455 68.5088 1.48455 68.457 1.51068C67.9338 1.77206 67.4677 1.90797 67.043 2.35231C66.6183 2.79664 66.2712 3.32462 65.9708 3.89964C65.6652 4.47466 65.4166 5.07582 65.2094 5.72926C65.0023 6.38269 64.7226 7.07795 64.5879 7.77843C64.0544 10.4967 63.5675 13.33 63.293 16.0744C63.0185 18.8189 62.8942 21.7306 62.7803 24.4018C62.6663 27.073 62.6715 29.9534 62.6611 32.426C62.6508 34.8986 62.6663 37.7162 62.6663 39.8281C62.6663 43.7905 62.7233 48.0091 62.8269 51.4801C62.9305 54.9512 63.1325 57.131 63.3241 60.2466C63.3448 60.5707 63.3655 60.6753 63.3863 60.8164C63.4484 61.3339 63.5157 61.8619 63.5365 62.254C63.5572 62.646 63.4898 62.8656 63.4484 63.1426C63.407 63.4197 63.4122 63.5504 63.1532 63.5608C62.8942 63.5765 62.8579 63.4302 62.7492 63.1688C62.6404 62.9074 62.5368 62.6826 62.4747 62.301C62.4177 61.9194 62.34 61.3914 62.2882 60.9001C62.2727 60.7641 62.2519 60.5603 62.2157 60.2728C62.1794 59.9852 62.0914 59.9905 62.0551 59.4939C61.822 56.5351 61.5993 54.3343 61.4854 51.0097C61.3714 47.6798 61.2937 43.6703 61.2937 39.8699C61.2937 37.7319 61.2834 34.93 61.2886 32.4521C61.2886 29.9743 61.3145 27.0208 61.3973 24.3757C61.4388 23.0793 61.5165 21.5685 61.5838 20.1937C61.6511 18.8189 61.6874 17.3709 61.8169 15.9542C61.9464 14.5376 62.1225 13.0686 62.3555 11.6468C62.5886 10.2197 62.8528 8.78733 63.2205 7.38114C63.5883 5.97495 64.1321 4.60012 64.7018 3.26712C64.8728 2.8646 65.1369 2.53527 65.3596 2.1798C65.5824 1.82433 65.7222 1.48977 66.0174 1.18135C66.3127 0.872932 66.6597 0.66906 67.043 0.459961C67.4263 0.256089 67.8458 0.13063 68.2912 0.0260804C68.3637 0.010398 68.4829 0.0260804 68.602 0.0103979C68.7211 -0.00528448 68.9801 -0.0261944 69.1148 0.0208529C69.2494 0.0679002 69.3686 0.182905 69.467 0.256089C69.5602 0.329274 69.5913 0.329274 69.6742 0.397231C69.757 0.465189 69.7777 0.454734 69.8762 0.564511C69.9694 0.674288 70.0989 0.825884 70.2128 0.998391C70.3216 1.1709 70.4614 1.36431 70.5857 1.58387C70.7101 1.80342 70.8913 2.16412 71.0364 2.3889C71.1762 2.60845 71.3368 2.91688 71.4093 3.11029C71.4818 3.30894 71.4404 3.3403 71.4611 3.49713C71.4818 3.65395 71.4611 3.46053 71.4611 3.48144C71.7304 4.11397 71.979 4.78308 72.1914 5.44697C72.4037 6.11086 72.642 6.77998 72.8285 7.4491C73.3205 9.22644 73.7763 11.0927 74.2217 12.8648C74.662 14.6317 75.1074 16.3672 75.5322 18.1079C75.7342 18.9234 75.9569 20.1048 76.1123 20.8001C76.5266 22.6088 76.9928 24.5064 77.3709 26.1112C77.7542 27.716 78.0701 29.0386 78.4171 30.4552C78.7642 31.8666 79.0438 32.9592 79.3961 34.2817C79.4427 34.4595 79.5048 34.6215 79.5411 34.7418C79.5773 34.8568 79.5514 34.9143 79.567 34.9665C80.0383 36.9268 80.5045 38.6937 81.0846 40.6436C81.6647 42.5934 82.2759 44.6112 82.9026 46.6186C83.2133 47.6118 83.5707 48.7044 83.954 49.7342C84.3373 50.764 84.7309 51.8827 85.1919 52.9125C85.6529 53.9423 86.1553 54.9773 86.694 55.981C87.2326 56.9847 87.7972 58.0093 88.4861 58.9241C89.1749 59.8337 89.9156 60.7798 90.8427 61.4176C91.7699 62.0606 92.6504 62.4578 93.7691 62.3899C94.8879 62.3219 95.5146 61.6633 96.276 60.8635C96.623 60.5028 96.8768 59.8912 97.1306 59.4102C97.3844 58.9293 97.7056 58.3595 97.8661 57.8263C98.555 55.5523 99.1817 53.1582 99.6738 50.8738C99.9431 49.6139 100.073 48.3855 100.259 47.1988C100.446 46.007 100.611 44.674 100.71 43.571C101.077 39.4413 101.367 34.7679 101.533 30.8577C101.699 26.9424 101.803 23.3459 101.958 19.8016C102.036 18.0661 102.067 16.7801 102.129 15.4315C102.191 14.0828 102.31 13.032 102.388 12.0127C102.466 10.9881 102.548 10.0837 102.585 9.37281C102.621 8.65665 102.683 8.26981 102.745 7.84116C102.807 7.41251 102.719 7.41773 103.004 7.44387C103.284 7.47001 103.196 7.45433 103.227 7.88298C103.253 8.3064 103.299 8.70892 103.258 9.4094" fill="#1A143E"/>
    <path d="M134.728 32.0602C134.972 32.1856 135.153 32.2797 135.278 32.3372C135.34 32.4 135.371 32.4627 135.371 32.5202C135.309 32.5829 135.246 32.6143 135.189 32.6143C135.127 32.677 134.972 32.7084 134.728 32.7084C134.423 32.7084 134.148 32.677 133.9 32.6143C133.594 32.5516 133.289 32.5045 132.983 32.4732C132.677 32.4418 132.279 32.3947 131.792 32.332C131.362 32.2693 130.89 32.2222 130.373 32.1909C129.849 32.1595 129.254 32.1438 128.58 32.1438H127.389C127.021 32.0811 126.607 32.0393 126.151 32.0027C125.69 31.9713 125.25 31.987 124.82 32.0497H118.579C118.517 32.6038 118.486 33.1475 118.486 33.6702V36.8642C118.486 37.4183 118.517 38.0091 118.579 38.6259C118.579 40.7901 118.641 42.8549 118.76 44.8309C118.884 46.8069 119.004 48.5686 119.128 50.1107C119.19 50.9157 119.252 51.6057 119.309 52.1964C119.371 52.7819 119.433 53.2942 119.49 53.7228C119.553 54.2195 119.615 54.6795 119.672 55.1134C119.734 55.61 119.537 55.9027 119.076 55.9916C118.615 56.0857 118.325 55.8818 118.206 55.3904C118.206 55.0193 118.175 54.5592 118.113 53.9999C118.051 53.5033 117.988 52.9492 117.931 52.3323C117.869 51.7155 117.807 51.0359 117.75 50.2936C117.626 48.6888 117.522 46.8853 117.429 44.878C117.336 42.8706 117.294 40.7901 117.294 38.6259V35.3849C117.294 34.3341 117.325 33.2521 117.388 32.1438C115.678 32.2066 114.067 32.285 112.571 32.3738C111.074 32.4679 109.712 32.5725 108.484 32.6979C108.178 32.6979 107.982 32.515 107.888 32.1438C107.795 31.7727 107.935 31.5583 108.303 31.4956C109.587 31.3754 110.981 31.2813 112.477 31.2186C113.979 31.1558 115.616 31.0931 117.388 31.0356L117.662 26.127L117.937 23.5342L118.03 22.3319L118.216 21.7777V21.6836C118.216 21.5007 118.273 21.3752 118.398 21.3125C118.398 21.187 118.429 21.1243 118.491 21.1243C118.491 20.8786 118.615 20.8159 118.859 20.9413C119.408 21.187 119.641 21.2968 119.547 21.2654C119.454 21.2341 119.439 21.2498 119.501 21.3125C119.563 21.3752 119.594 21.4955 119.594 21.6836C119.594 21.7464 119.625 21.8091 119.687 21.8666C119.687 21.9921 119.672 22.0652 119.641 22.0966C119.61 22.128 119.594 22.175 119.594 22.2378V22.5148C119.594 22.8232 119.563 23.0689 119.501 23.2571L119.319 23.9053V24.4594C119.138 24.956 118.983 25.2645 118.859 25.3847V25.6618C118.859 25.7872 118.843 25.8813 118.812 25.9388C118.781 26.0015 118.765 26.0956 118.765 26.2159C118.703 26.9582 118.657 27.7318 118.631 28.5316C118.6 29.3367 118.584 30.1678 118.584 31.0304H120.055C120.847 31.0304 121.645 31.0461 122.443 31.0774C123.24 31.1088 124.033 31.1245 124.83 31.1245C125.26 31.1245 125.778 31.1402 126.39 31.1715C127.001 31.2029 127.519 31.2813 127.949 31.4015H129.419C129.906 31.4015 130.352 31.4329 130.751 31.4956C131.149 31.5583 131.533 31.6211 131.895 31.6786C132.812 31.804 133.516 31.8981 134.009 31.9556C134.314 32.0184 134.589 32.0497 134.832 32.0497H134.739L134.728 32.0602Z" fill="#1A143E"/>
    <path d="M123.257 42.1596C123.07 42.0342 122.951 41.8512 122.889 41.6055C122.827 41.3598 122.827 41.1402 122.889 40.9573C123.07 40.5234 123.407 40.3091 123.899 40.3091C124.142 40.4345 124.236 40.6332 124.173 40.9102C124.111 41.1873 124.049 41.4173 123.987 41.6055V41.5114C123.925 42.008 123.681 42.2223 123.251 42.1596M131.419 47.3453C131.052 47.8419 130.58 48.3176 129.995 48.7828C129.415 49.2481 128.726 49.661 127.928 50.0322C127.561 50.2204 127.131 50.372 126.644 50.4974C126.152 50.6229 125.665 50.6543 125.173 50.5915C124.562 50.4661 124.07 50.189 123.707 49.7604C123.339 49.3265 123.096 48.8978 122.972 48.4639C122.666 47.6014 122.511 46.6448 122.511 45.5941V44.7158C122.511 44.4388 122.542 44.1774 122.604 43.9265V43.6494C122.604 43.4613 122.816 43.3724 123.246 43.3724C123.676 43.3724 123.857 43.4978 123.795 43.7435C123.733 44.052 123.686 44.3604 123.655 44.6688C123.624 44.9772 123.609 45.317 123.609 45.6882C123.609 45.9966 123.64 46.3677 123.702 46.8016C123.764 47.2355 123.852 47.6641 123.977 48.098C124.22 48.9031 124.681 49.3944 125.354 49.5774C125.722 49.7029 126.105 49.7029 126.499 49.5774C126.898 49.4572 127.281 49.3317 127.644 49.2062C128.317 48.8978 128.944 48.5267 129.524 48.0928C130.104 47.6589 130.58 47.2564 130.948 46.8905C131.129 46.7075 131.285 46.535 131.409 46.3782C131.528 46.2266 131.653 46.0854 131.777 45.96C131.901 45.8398 131.989 45.7143 132.051 45.5888C132.233 45.4059 132.357 45.3118 132.419 45.3118C132.481 45.3118 132.543 45.3431 132.6 45.4059C132.663 45.4686 132.694 45.5313 132.694 45.5888C132.694 45.7718 132.663 45.8659 132.6 45.8659C132.538 45.9913 132.398 46.19 132.186 46.4671C131.968 46.7441 131.71 47.0368 131.404 47.3453" fill="#1A143E"/>
    <path d="M133.579 48.0354C133.641 48.3438 133.729 48.6052 133.853 48.8247C133.972 49.0391 134.097 49.2743 134.221 49.52C134.464 49.8284 134.739 50.0741 135.044 50.2623C135.35 50.4452 135.718 50.4818 136.148 50.3564C136.883 50.1734 137.463 49.6141 137.893 48.6888C138.323 47.889 138.598 47.0056 138.717 46.0489C138.836 45.0923 138.836 44.1827 138.717 43.315C138.717 42.4524 138.499 41.6474 138.074 40.9051L137.614 40.628H137.246C137.064 40.628 136.894 40.6594 136.743 40.7221C136.588 40.7849 136.453 40.8476 136.329 40.9051C136.023 41.1508 135.764 41.4331 135.547 41.7415C135.335 42.0499 135.164 42.3583 135.044 42.6668C134.801 43.0379 134.552 43.6234 134.309 44.4284C134.128 44.9825 133.988 45.5105 133.895 46.0019C133.801 46.4985 133.724 46.8958 133.667 47.2042L133.574 48.0354H133.579ZM133.211 45.9026C133.273 45.5941 133.33 45.3171 133.392 45.0714C133.454 44.8257 133.517 44.5173 133.574 44.1461C133.698 43.9004 133.801 43.6234 133.895 43.315C133.988 43.0065 134.154 42.6668 134.397 42.2956H134.304C134.485 41.9245 134.703 41.569 134.946 41.2292C135.19 40.8894 135.495 40.5967 135.863 40.351C136.355 39.9798 136.811 39.7969 137.241 39.7969C137.546 39.7969 137.79 39.8596 137.976 39.9798C138.22 40.0426 138.406 40.1367 138.525 40.2569C139.012 40.7535 139.307 41.2449 139.395 41.7363C139.488 42.2329 139.592 42.7243 139.716 43.2209V44.5173C139.716 45.2596 139.639 46.0333 139.488 46.8331C139.333 47.6381 139.074 48.4065 138.706 49.1488C138.463 49.6454 138.157 50.1055 137.79 50.5393C137.422 50.9732 136.935 51.2503 136.324 51.3705C135.65 51.6162 135.101 51.5587 134.672 51.1875C134.49 51.1875 134.273 51.0935 134.029 50.9105L133.848 50.7223H133.941C133.698 50.6021 133.542 50.4452 133.48 50.2571L133.387 50.163C132.838 49.3004 132.47 48.3438 132.284 47.2931C132.165 46.8017 132.103 46.3051 132.103 45.8137V44.5173C132.165 43.592 132.346 42.6981 132.652 41.8304C132.776 41.7049 132.864 41.5219 132.926 41.2763C132.988 41.0306 133.076 40.811 133.201 40.628L133.568 40.4451H133.662C134.029 40.1994 134.273 40.168 134.397 40.351H134.304L134.672 40.534V41.1822C134.672 41.3076 134.656 41.3808 134.625 41.4122C134.594 41.4435 134.578 41.4906 134.578 41.5533C134.397 42.1074 134.117 42.2642 133.755 42.0186C133.755 42.0813 133.739 42.1283 133.708 42.1597C133.677 42.1911 133.662 42.2381 133.662 42.3008C133.418 43.0431 133.263 43.7802 133.201 44.5225V45.913L133.211 45.9026Z" fill="#1A143E"/>
    <path d="M159 44.5173V44.7002C159 44.8257 158.876 44.9773 158.632 45.1655C158.57 45.2282 158.477 45.2909 158.358 45.3484C158.234 45.4112 158.114 45.4582 157.99 45.4896C157.866 45.5209 157.747 45.5994 157.622 45.7196C157.317 45.9653 156.918 46.2162 156.431 46.4619C155.939 46.7076 155.421 46.9271 154.872 47.1101C154.567 47.2356 154.23 47.3087 153.862 47.3401C153.494 47.3715 153.064 47.2931 152.578 47.1101C151.966 46.8644 151.63 46.5246 151.568 46.0907C151.443 45.9078 151.366 45.7196 151.34 45.5366C151.309 45.3537 151.231 45.1341 151.112 44.8884C151.05 44.7682 151.019 44.6584 151.019 44.5643C151.019 44.4702 150.987 44.3657 150.925 44.2402C150.863 43.9945 150.77 43.7175 150.651 43.409C150.527 43.1006 150.376 42.8549 150.19 42.6667C150.003 42.4786 149.76 42.3897 149.454 42.3897C149.273 42.4524 149.087 42.5256 148.905 42.6197C148.719 42.7138 148.569 42.8236 148.444 42.9438C147.771 43.5606 147.191 44.3029 146.699 45.1655C146.207 46.0332 145.751 46.8958 145.321 47.7583C145.197 48.0667 145.062 48.3752 144.907 48.6836C144.751 48.992 144.617 49.3004 144.492 49.6088L144.031 50.5341L143.938 50.7171C143.938 50.9 143.814 51.1823 143.57 51.5535C143.265 52.0448 142.99 52.2958 142.742 52.2958H142.649C142.524 52.2958 142.467 52.2644 142.467 52.2017C142.343 52.2017 142.25 52.1076 142.193 51.9246L142.099 51.8305V51.9246C142.037 51.7992 142.006 51.6632 142.006 51.5064C142.006 51.3496 141.975 51.1823 141.913 50.9941L141.82 50.44L141.727 50.0689V44.695C141.727 44.5748 141.742 44.465 141.773 44.3709C141.804 44.2768 141.82 44.2036 141.82 44.1409C141.82 43.7697 141.851 43.3986 141.913 43.0274C141.975 42.6563 142.032 42.3165 142.094 42.0081L142.276 41.2658L142.462 40.8946L142.737 40.6176C142.98 40.4921 143.208 40.5078 143.425 40.6646C143.638 40.8214 143.809 40.9574 143.933 41.0828C143.995 41.3912 144.026 41.6997 144.026 42.0081C144.026 42.3165 143.995 42.5361 143.933 42.6563C143.933 43.2104 143.715 43.4927 143.291 43.4927L143.198 44.7891L143.016 47.476V48.9554L143.109 49.6036L144.301 47.1937C144.788 46.2685 145.295 45.3746 145.813 44.5068C146.331 43.6443 146.989 42.8706 147.787 42.191C148.279 41.8199 148.765 41.5428 149.258 41.3599C149.869 41.2971 150.387 41.454 150.817 41.8251C151.184 42.259 151.428 42.6563 151.552 43.0274C151.676 43.3986 151.795 43.7697 151.92 44.1409L152.013 44.695C152.075 45.0034 152.163 45.3118 152.288 45.6203C152.412 45.9287 152.593 46.1482 152.837 46.2685C153.142 46.3939 153.463 46.441 153.8 46.4096C154.137 46.3783 154.396 46.3312 154.582 46.2685C155.131 46.143 155.639 45.9757 156.094 45.7614C156.555 45.5471 156.934 45.3746 157.244 45.2543L157.338 45.1603C157.462 45.0975 157.534 45.0505 157.565 45.0191C157.597 44.9877 157.669 44.9407 157.793 44.878C157.855 44.8152 157.944 44.7577 158.068 44.6898C158.498 44.5068 158.772 44.4127 158.891 44.4127H158.985V44.5068L159 44.5173Z" fill="#1A143E"/>
    <path d="M118.854 49.2062C118.864 49.4675 117.849 50.2673 117.849 50.2673C117.295 50.5967 116.818 51.1351 115.917 51.0515C114.85 50.9574 114.457 49.9119 114.203 49.018C113.877 47.8575 113.685 46.6604 113.726 45.4476C113.726 45.3431 113.763 45.181 113.778 45.0974C113.794 45.0137 113.788 45.0189 113.809 44.9405C113.586 45.3326 113.524 45.4633 113.281 45.9285C113.037 46.3938 112.587 47.2249 112.307 47.7372C112.027 48.2548 111.81 48.7723 111.587 49.2793C111.364 49.7864 111.085 50.2203 110.753 50.6333C110.427 51.0462 110.142 51.4226 109.811 51.8147C109.474 52.2067 109.091 52.5308 108.671 52.8236C108.412 53.0065 108.055 53.0849 107.77 53.1111C107.485 53.1372 107.107 53.017 106.915 52.9229C106.377 52.6667 105.848 52.1335 105.724 51.6422C105.455 50.5444 105.517 49.5721 105.802 48.5684C106.087 47.5647 106.584 46.7127 107.169 45.9338C107.754 45.1549 108.469 44.6321 109.293 44.2453C110.111 43.8637 110.893 43.8375 111.737 43.9003C112.255 43.9369 112.364 44.2714 112.255 44.7158C112.147 45.1601 111.924 45.411 111.447 45.4319C110.09 45.4947 109.163 45.8919 108.169 46.8538C107.905 47.1099 107.62 47.4131 107.444 47.7581C107.268 48.0979 107.086 48.4743 106.988 48.8402C106.889 49.2062 106.848 49.5773 106.786 49.9432C106.724 50.3039 106.765 50.7064 106.864 51.0305C106.962 51.3547 107.04 51.5899 107.335 51.7415C107.63 51.8931 107.817 51.9976 108.148 51.7624C108.811 51.2919 109.288 50.6019 109.811 49.9171C110.168 49.4518 110.588 48.8925 110.862 48.3436C111.142 47.7947 111.313 47.3086 111.598 46.7179C111.882 46.1324 112.297 45.4581 112.571 44.8151C112.608 44.7367 112.644 44.6635 112.69 44.5903C112.753 44.491 112.846 44.4021 112.924 44.3185C113.012 44.2244 113.105 44.1303 113.208 44.0414C113.369 43.9003 113.597 43.7173 113.82 43.7382C113.918 43.7434 114.022 43.7644 114.104 43.8114C114.244 43.8846 114.431 44.0675 114.503 44.2139C114.545 44.2976 114.555 44.3864 114.565 44.4753C114.581 44.6373 114.612 44.7942 114.622 44.9562C114.643 45.2699 114.633 45.5887 114.638 45.9024C114.648 46.2108 114.659 46.5192 114.669 46.8329C114.669 46.9583 114.685 47.089 114.685 47.2145C114.705 47.7581 114.798 48.5423 114.912 48.9605C115.011 49.3159 115.135 49.6871 115.384 49.9641C115.612 50.2151 116.036 50.466 116.378 50.3614C116.611 50.2882 116.782 50.1471 116.989 50.0164C117.269 49.8387 117.58 49.5721 117.834 49.3734C119.325 48.1973 118.833 49.2114 118.833 49.2114" fill="#1A143E"/>
    <path d="M10.2655 46.8069C10.6332 46.3364 10.8145 45.5157 10.8145 44.3552C10.8145 43.1947 10.6332 42.374 10.2655 41.9035C9.89771 41.4278 9.28653 41.1926 8.42155 41.1926C7.55658 41.1926 6.9454 41.4278 6.57766 41.9035C6.20991 42.374 6.02863 43.1947 6.02863 44.3552C6.02863 45.5157 6.20991 46.3364 6.57766 46.8069C6.9454 47.2774 7.55658 47.5178 8.42155 47.5178C9.28653 47.5178 9.89771 47.2826 10.2655 46.8069ZM2.13883 50.6805C0.714473 49.384 0.00488281 47.2774 0.00488281 44.3552C0.00488281 41.4331 0.714473 39.3264 2.13883 38.03C3.56319 36.7336 5.65571 36.0906 8.42155 36.0906C11.1874 36.0906 13.2851 36.7388 14.7095 38.03C16.1338 39.3264 16.8434 41.4331 16.8434 44.3552C16.8434 47.2774 16.1286 49.384 14.7095 50.6805C13.2851 51.9769 11.1874 52.6251 8.42155 52.6251C5.65571 52.6251 3.55801 51.9769 2.13883 50.6805Z" fill="#F47D72"/>
  </g>
  <defs>
    <clipPath id="clip0_9060_1990">
      <rect width="159" height="64" fill="white"/>
    </clipPath>
  </defs>
</svg>