<?xml version="1.0" encoding="utf-8"?>
<!-- Generator: Adobe Illustrator 21.0.2, SVG Export Plug-In . SVG Version: 6.00 Build 0)  -->
<svg version="1.1" id="Layer_1" xmlns="http://www.w3.org/2000/svg" xmlns:xlink="http://www.w3.org/1999/xlink" x="0px" y="0px"
	 viewBox="0 0 46.2 61" style="enable-background:new 0 0 46.2 61;" xml:space="preserve">
<style type="text/css">
	.st0{fill:#415A68;}
</style>
<path class="st0" d="M23,0C10.4,0,0.1,10.4,0,23.2c0.1,4.4,1.3,8.6,3.7,12.3l17.1,24c0.6,1,1.4,1.6,2.3,1.6c0.9,0,1.7-0.6,2.3-1.6
	l17.1-24c2.3-3.7,3.6-7.9,3.7-12.3C46,10.4,35.6,0,23,0L23,0z M23,13.8c5,0,9.2,4.2,9.2,9.2S28,32.2,23,32.2S13.8,28,13.8,23
	S17.9,13.8,23,13.8L23,13.8z"/>
</svg>
